<?xml version="1.0" encoding="utf-8"?>
<!-- Generator: Adobe Illustrator 26.3.1, SVG Export Plug-In . SVG Version: 6.00 Build 0)  -->
<svg version="1.1" id="Layer_1" xmlns="http://www.w3.org/2000/svg" xmlns:xlink="http://www.w3.org/1999/xlink" x="0px" y="0px"
	 viewBox="0 0 2114.7 2114.7" style="enable-background:new 0 0 2114.7 2114.7;" xml:space="preserve">
<style type="text/css">
	.st0{fill:#E9A950;stroke:#2B2B2B;stroke-width:35.1145;stroke-miterlimit:10;}
	.st1{fill:#C9883A;}
	.st2{fill:none;stroke:#2B2B2B;stroke-width:35.1145;stroke-miterlimit:10;}
	.st3{fill:#FF69AD;stroke:#282826;stroke-width:24.5802;stroke-miterlimit:10;}
	.st4{fill:#D64386;}
	.st5{fill:none;stroke:#282826;stroke-width:24.5802;stroke-miterlimit:10;}
	.st6{fill:#FFFFFF;}
	.st7{fill:#C43B80;}
	.st8{fill:#8ABA15;}
	.st9{fill:#282826;}
	.st10{fill:#E8D20C;}
	.st11{fill:#0CBEE8;}
	.st12{fill:#E8450C;}
	.st13{fill:#C2FFFC;}
</style>
<g>
	<g>
		<path class="st0" d="M1795.5,917.8c-17.5-87-49.9-168.6-94.6-242c-111.2-182.6-297.9-314.2-516.7-351.3
			c-41.3-7-83.6-10.6-126.9-10.6c-40.9,0-81.1,3.3-120.2,9.6c-201.1,32.2-375.5,144.1-490,302.2c-35.9,49.5-65.9,103.7-89,161.3
			c-34.7,86.5-53.7,180.9-53.7,279.8c0,77,11.6,151.3,33.1,221.3c33.3,108.3,90.2,206.1,164.9,287.5c137.6,150,335.3,244,554.9,244
			c415.8,0,752.9-337.1,752.9-752.9C1810.2,1015.8,1805.2,965.9,1795.5,917.8z M1292.9,1066.7c0,130.1-105.4,235.5-235.5,235.5
			s-235.5-105.4-235.5-235.5c0-130.1,105.4-235.6,235.5-235.6S1292.9,936.6,1292.9,1066.7z"/>
		<path class="st1" d="M1795.5,917.8c-17.5-87-49.9-168.6-94.6-242c-84.7-139.1-213.1-248.5-366.2-309.2
			c113.1,63.5,208.2,155.3,275.6,266c44.6,73.4,77.1,155,94.6,242c9.7,48.1,14.7,98,14.7,149c0,415.8-337.1,752.9-752.9,752.9
			c-98.1,0-191.8-18.8-277.7-52.9c108.9,61.2,234.5,96.1,368.3,96.1c415.8,0,752.9-337.1,752.9-752.9
			C1810.2,1015.8,1805.2,965.9,1795.5,917.8z"/>
		<path class="st2" d="M1795.5,917.8c-17.5-87-49.9-168.6-94.6-242c-111.2-182.6-297.9-314.2-516.7-351.3
			c-41.3-7-83.6-10.6-126.9-10.6c-40.9,0-81.1,3.3-120.2,9.6c-201.1,32.2-375.5,144.1-490,302.2c-35.9,49.5-65.9,103.7-89,161.3
			c-34.7,86.5-53.7,180.9-53.7,279.8c0,77,11.6,151.3,33.1,221.3c33.3,108.3,90.2,206.1,164.9,287.5c137.6,150,335.3,244,554.9,244
			c415.8,0,752.9-337.1,752.9-752.9C1810.2,1015.8,1805.2,965.9,1795.5,917.8z M1292.9,1066.7c0,130.1-105.4,235.5-235.5,235.5
			s-235.5-105.4-235.5-235.5c0-130.1,105.4-235.6,235.5-235.6S1292.9,936.6,1292.9,1066.7z"/>
		<g>
			<path class="st3" d="M1774.1,758.2c-22.7-36.2-47.4-62.5-73.2-82.4c-87.1-67.1-186.2-60.6-258.7-109.6
				c-83.4-56.4-134.1-183.9-258-241.7c-43.6-20.3-96.2-32-162.5-28.9c-30,1.4-57.9,11.8-84.5,27.8c-89.6,54-163.4,171.3-244.5,219.3
				c-82.4,48.7-161.6,6.7-245.5,82.9c-23.2,21.1-46.8,51.2-70.9,94.9c-12,21.7-17.3,43.8-18.1,66.4c-3.3,86.1,58.1,178.9,58.1,280.3
				c0,75.7-58.6,139.9-78.8,220.9c-10.6,42.4-10.6,89.4,13.7,145.1c38.7,88.5,92.9,126.1,151.2,142.4c83.5,23.3,175.4,2.9,241.9,26
				c120.5,41.7,202.3,170.8,348.5,174.9c200,5.6,183.3-156.8,300.8-244c94.2-69.9,224.7-44.7,274.7-152.3c42-90.3,31-171.4,31-277.6
				c0-73.7,67.2-120.8,96.2-184.8C1814.5,875.9,1817.2,826.8,1774.1,758.2z M1057.4,1302.3c-130.1,0-235.5-105.4-235.5-235.5
				c0-130.1,105.4-235.6,235.5-235.6s235.5,105.5,235.5,235.6C1292.9,1196.8,1187.5,1302.3,1057.4,1302.3z"/>
			<path class="st4" d="M1774.1,758.2c-22.7-36.2-47.4-62.5-73.2-82.4c-87.1-67.1-186.2-60.6-258.7-109.6
				c-39.7-26.8-72-69.8-108.3-113.7c0,0,0,0,0,0c-3.7-4.5-7.6-9.1-11.4-13.6c-0.7-0.8-1.4-1.6-2.1-2.4c-1.5-1.8-3.1-3.6-4.7-5.4
				c-1.1-1.3-2.2-2.5-3.3-3.8c-1.3-1.5-2.7-3-4-4.5c-1.3-1.5-2.7-3-4-4.5c-1.2-1.3-2.4-2.7-3.7-4c-1.5-1.6-3-3.2-4.5-4.9
				c-1.2-1.2-2.3-2.5-3.5-3.7c-1.6-1.7-3.2-3.4-4.9-5.1c-1.1-1.1-2.2-2.3-3.4-3.4c-1.7-1.7-3.5-3.5-5.2-5.2
				c-1.1-1.1-2.2-2.1-3.3-3.2c-1.8-1.7-3.7-3.5-5.5-5.2c-1.1-1-2.2-2-3.3-3c-1.9-1.7-3.9-3.5-5.8-5.2c-1.1-1-2.2-1.9-3.3-2.9
				c-2-1.7-4.1-3.4-6.1-5.1c-1.1-0.9-2.2-1.8-3.3-2.7c-2.1-1.7-4.3-3.4-6.5-5c-1.1-0.8-2.2-1.7-3.3-2.5c-2.2-1.7-4.5-3.3-6.8-4.9
				c-1.1-0.8-2.2-1.6-3.3-2.4c-2.4-1.6-4.8-3.2-7.2-4.8c-1.1-0.7-2.2-1.4-3.3-2.1c-2.5-1.6-5.1-3.2-7.8-4.7
				c-1.1-0.6-2.1-1.3-3.2-1.9c-2.9-1.6-5.8-3.2-8.7-4.8c-0.9-0.5-1.7-1-2.6-1.4c-3.8-2-7.8-3.9-11.8-5.8
				c-43.6-20.3-96.2-32-162.5-28.9c-29.7,1.4-57.4,11.6-83.8,27.4c0,0-0.1,0.1-0.1,0.1c0,0,0,0,0,0c-0.2,0.1-0.4,0.2-0.6,0.4
				c-89.6,54-163.4,171.3-244.5,219.3c-82.4,48.7-161.6,6.7-245.5,82.9c-23.2,21.1-46.8,51.2-70.9,94.9
				c-12,21.7-17.3,43.8-18.1,66.4c-3.3,86.1,58.1,178.9,58.1,280.3c0,75.7-58.6,139.9-78.8,220.9c-10.6,42.4-10.6,89.4,13.7,145.1
				c38.7,88.5,92.9,126.1,151.2,142.4c2.7,0.7,5.4,1.5,8.1,2.1c0.7,0.2,1.3,0.3,2,0.5c2,0.5,4.1,1,6.2,1.4c0.8,0.2,1.6,0.3,2.4,0.5
				c1.9,0.4,3.9,0.8,5.8,1.1c0.9,0.2,1.7,0.3,2.6,0.4c1.9,0.3,3.8,0.7,5.7,1c0.9,0.1,1.8,0.3,2.7,0.4c1.9,0.3,3.7,0.6,5.6,0.8
				c0.9,0.1,1.8,0.2,2.7,0.3c1.9,0.2,3.7,0.5,5.6,0.7c0.9,0.1,1.8,0.2,2.7,0.3c1.9,0.2,3.7,0.4,5.6,0.6c0.9,0.1,1.8,0.2,2.6,0.2
				c1.9,0.2,3.8,0.3,5.7,0.5c0.9,0.1,1.7,0.1,2.6,0.2c1.9,0.1,3.8,0.3,5.7,0.4c0.9,0.1,1.7,0.1,2.6,0.2c1.9,0.1,3.8,0.2,5.7,0.3
				c0.9,0,1.8,0.1,2.7,0.1c1.9,0.1,3.7,0.2,5.6,0.2c0.9,0,1.9,0.1,2.8,0.1c1.8,0.1,3.5,0.1,5.3,0.2c1.1,0,2.1,0.1,3.2,0.1
				c1.5,0,3.1,0.1,4.6,0.1c1.4,0,2.8,0.1,4.1,0.1c1,0,1.9,0,2.9,0.1c6.6,0.1,13.2,0.2,19.7,0.4c0,0,0,0,0,0
				c39.6,0.7,77.2,1.8,108.9,12.8c120.5,41.7,202.3,170.8,348.5,174.9c200,5.6,183.3-156.8,300.8-244
				c94.2-69.9,224.7-44.7,274.7-152.3c42-90.3,31-171.4,31-277.6c0-73.7,67.2-120.8,96.2-184.8
				C1814.5,875.9,1817.2,826.8,1774.1,758.2z M1646.5,870.8c-39.9,47.6-119.7,100.4-119.7,165c0,93.1,78.2,187.2,39.7,266.4
				c-45.8,94.2-208.1,55.8-294.6,117.1c-107.7,76.4-18.8,244.5-202.3,239.6c-134.1-3.6-232.2-193.4-380.6-148.7
				c-186.1,56.1-321.7-63.7-295.7-186.7c15.8-74.9,139.8-143.8,139.8-212.9c0-92.5-104.9-126.1-124-257c-3-20.4-11.7-122,69-189.8
				c132.9-111.8,249.1,5.2,323-67.9c81.8-81,136-384.6,388.5-190.5c78.9,60.6,167.2,199.3,248.8,255.6
				c61.6,42.5,138.1,32.2,172.2,48.8C1701.3,753.9,1679.7,831.2,1646.5,870.8z"/>
			<path class="st4" d="M1039,746.7c-174.9,0-316.7,138.7-316.7,309.7c0,171,141.8,309.7,316.7,309.7
				c174.9,0,316.7-138.7,316.7-309.7C1355.8,885.3,1213.9,746.7,1039,746.7z M1057.4,1302.3c-130.1,0-235.5-105.4-235.5-235.5
				c0-130.1,105.4-235.6,235.5-235.6s235.5,105.5,235.5,235.6C1292.9,1196.8,1187.5,1302.3,1057.4,1302.3z"/>
			<path class="st5" d="M1774.1,758.2c-22.7-36.2-47.4-62.5-73.2-82.4c-87.1-67.1-186.2-60.6-258.7-109.6
				c-83.4-56.4-134.1-183.9-258-241.7c-43.6-20.3-96.2-32-162.5-28.9c-30,1.4-57.9,11.8-84.5,27.8c-89.6,54-163.4,171.3-244.5,219.3
				c-82.4,48.7-161.6,6.7-245.5,82.9c-23.2,21.1-46.8,51.2-70.9,94.9c-12,21.7-17.3,43.8-18.1,66.4c-3.3,86.1,58.1,178.9,58.1,280.3
				c0,75.7-58.6,139.9-78.8,220.9c-10.6,42.4-10.6,89.4,13.7,145.1c38.7,88.5,92.9,126.1,151.2,142.4c83.5,23.3,175.4,2.9,241.9,26
				c120.5,41.7,202.3,170.8,348.5,174.9c200,5.6,183.3-156.8,300.8-244c94.2-69.9,224.7-44.7,274.7-152.3c42-90.3,31-171.4,31-277.6
				c0-73.7,67.2-120.8,96.2-184.8C1814.5,875.9,1817.2,826.8,1774.1,758.2z M1057.4,1302.3c-130.1,0-235.5-105.4-235.5-235.5
				c0-130.1,105.4-235.6,235.5-235.6s235.5,105.5,235.5,235.6C1292.9,1196.8,1187.5,1302.3,1057.4,1302.3z"/>
		</g>
		<g>
			<path class="st6" d="M1203.7,1345.2l-0.6-1.2c-5-10.3-1.2-22.6,8.8-28.3c78.5-44.8,123.3-117.7,133.4-217
				c5.6-55.6-1.4-105.1-6.5-131.2c-2.2-11.1,4.5-21.9,15.4-25l1.3-0.4c12.2-3.4,24.7,4.2,27.2,16.6c5.8,29.2,13.4,83.2,7.2,144.4
				c-11.5,113.1-65.1,199.5-155.7,251.4C1223.1,1360.8,1209.2,1356.5,1203.7,1345.2z"/>
			<path class="st6" d="M1292.8,883.3c-2.9-4.3-6.2-8.7-9.4-12.9c-7-9.1-5.8-22,2.8-29.6l0,0c9.4-8.2,23.8-6.9,31.4,2.9
				c3.5,4.6,7.3,9.7,10.9,14.9c7.7,11.2,3.4,26.6-9,32.1l0,0C1309.9,895,1298.7,891.9,1292.8,883.3z"/>
		</g>
	</g>
	<g>
		<g>
			<path class="st7" d="M914.8,701.9H817c-13.1,0-23.9-10.8-23.9-23.9l0,0c0-13.1,10.8-23.9,23.9-23.9h97.8
				c13.1,0,23.9,10.8,23.9,23.9l0,0C938.7,691.2,928,701.9,914.8,701.9z"/>
			<path class="st7" d="M1190.5,529.1h-97.8c-13.1,0-23.9-10.8-23.9-23.9v0c0-13.1,10.8-23.9,23.9-23.9h97.8
				c13.1,0,23.9,10.8,23.9,23.9v0C1214.4,518.4,1203.6,529.1,1190.5,529.1z"/>
			<path class="st7" d="M1243.6,672.1l-82.6,52.3c-11.1,7-25.9,3.7-33-7.4v0c-7-11.1-3.7-25.9,7.4-33l82.6-52.3
				c11.1-7,25.9-3.7,33,7.4l0,0C1258.1,650.2,1254.8,665,1243.6,672.1z"/>
			<path class="st7" d="M606.6,784.4l-82.6,52.3c-11.1,7-25.9,3.7-33-7.4l0,0c-7-11.1-3.7-25.9,7.4-33L581,744
				c11.1-7,25.9-3.7,33,7.4l0,0C621,762.5,617.7,777.3,606.6,784.4z"/>
			<path class="st7" d="M1635,1064.5l-82.6,52.3c-11.1,7-25.9,3.7-33-7.4l0,0c-7-11.1-3.7-25.9,7.4-33l82.6-52.3
				c11.1-7,25.9-3.7,33,7.4l0,0C1649.5,1042.6,1646.1,1057.5,1635,1064.5z"/>
			<path class="st7" d="M1015.6,1492.6l-84.7-48.9c-11.4-6.6-15.3-21.3-8.7-32.6l0,0c6.6-11.4,21.3-15.3,32.6-8.7l84.7,48.9
				c11.4,6.6,15.3,21.3,8.7,32.6v0C1041.7,1495.2,1027,1499.2,1015.6,1492.6z"/>
			<path class="st7" d="M772.4,923.2l-93.9,27.3c-12.6,3.7-26-3.6-29.6-16.3v0c-3.7-12.6,3.6-26,16.3-29.6l93.9-27.3
				c12.6-3.7,26,3.6,29.6,16.3l0,0C792.4,906.2,785,919.5,772.4,923.2z"/>
			<path class="st7" d="M572.2,1252.4l-69.2-69.2c-9.3-9.3-9.3-24.5,0-33.8l0,0c9.3-9.3,24.5-9.3,33.8,0l69.2,69.2
				c9.3,9.3,9.3,24.5,0,33.8l0,0C596.7,1261.7,581.5,1261.7,572.2,1252.4z"/>
			<path class="st7" d="M1555.7,1352.1l-93.7-28c-12.6-3.8-19.8-17.1-16.1-29.7v0c3.8-12.6,17.1-19.8,29.7-16.1l93.7,28
				c12.6,3.8,19.8,17.1,16.1,29.7v0C1581.7,1348.6,1568.3,1355.9,1555.7,1352.1z"/>
			<path class="st7" d="M674.2,1471.3h-97.8c-13.1,0-23.9-10.8-23.9-23.9l0,0c0-13.1,10.8-23.9,23.9-23.9h97.8
				c13.1,0,23.9,10.8,23.9,23.9l0,0C698.1,1460.6,687.3,1471.3,674.2,1471.3z"/>
			<path class="st7" d="M1541.1,864.6l-79-57.7c-10.6-7.8-12.9-22.8-5.2-33.4l0,0c7.8-10.6,22.8-12.9,33.4-5.2l79,57.7
				c10.6,7.8,12.9,22.8,5.2,33.4l0,0C1566.7,870,1551.7,872.4,1541.1,864.6z"/>
			<path class="st7" d="M1153.3,1563.6l60.9-76.5c8.2-10.3,23.3-12,33.6-3.8l0,0c10.3,8.2,12,23.3,3.8,33.6l-60.9,76.5
				c-8.2,10.3-23.3,12-33.6,3.8l0,0C1146.9,1589,1145.2,1573.9,1153.3,1563.6z"/>
		</g>
		<g>
			<g>
				<path class="st8" d="M885.1,687.9h-97.8c-13.1,0-23.9-10.8-23.9-23.9v0c0-13.1,10.8-23.9,23.9-23.9h97.8
					c13.1,0,23.9,10.8,23.9,23.9v0C909,677.1,898.2,687.9,885.1,687.9z"/>
				<path class="st9" d="M885.1,694.9h-97.8c-17,0-30.9-13.9-30.9-30.9c0-17.1,13.9-30.9,30.9-30.9h97.8c17.1,0,30.9,13.9,30.9,30.9
					C916,681,902.2,694.9,885.1,694.9z M787.3,647.1c-9.3,0-16.9,7.6-16.9,16.9c0,9.3,7.6,16.9,16.9,16.9h97.8
					c9.3,0,16.9-7.6,16.9-16.9c0-9.3-7.6-16.9-16.9-16.9H787.3z"/>
			</g>
			<g>
				<path class="st10" d="M1160.7,515.1h-97.8c-13.1,0-23.9-10.8-23.9-23.9v0c0-13.1,10.8-23.9,23.9-23.9h97.8
					c13.1,0,23.9,10.8,23.9,23.9v0C1184.6,504.3,1173.9,515.1,1160.7,515.1z"/>
				<path class="st9" d="M1160.7,522.1h-97.8c-17.1,0-30.9-13.9-30.9-30.9c0-17,13.9-30.9,30.9-30.9h97.8
					c17.1,0,30.9,13.9,30.9,30.9C1191.6,508.2,1177.8,522.1,1160.7,522.1z M1062.9,474.3c-9.3,0-16.9,7.6-16.9,16.9
					c0,9.3,7.6,16.9,16.9,16.9h97.8c9.3,0,16.9-7.6,16.9-16.9c0-9.3-7.6-16.9-16.9-16.9H1062.9z"/>
			</g>
			<g>
				<path class="st11" d="M1213.9,658l-82.6,52.3c-11.1,7-25.9,3.7-33-7.4l0,0c-7-11.1-3.7-25.9,7.4-33l82.6-52.3
					c11.1-7,25.9-3.7,33,7.4l0,0C1228.3,636.1,1225,651,1213.9,658z"/>
				<path class="st9" d="M1118.6,721c-2.3,0-4.6-0.3-6.9-0.8c-8.1-1.8-14.9-6.6-19.4-13.6c-9.1-14.4-4.8-33.5,9.6-42.7l82.6-52.3
					c14.4-9.1,33.5-4.8,42.7,9.6c4.4,7,5.8,15.2,4,23.3c-1.8,8.1-6.6,14.9-13.6,19.4l-82.6,52.3C1130,719.4,1124.4,721,1118.6,721z
					 M1201.1,620.9c-3.1,0-6.2,0.8-9,2.6l-82.6,52.3c-7.9,5-10.2,15.4-5.2,23.3c2.4,3.8,6.1,6.4,10.6,7.4c4.4,1,8.9,0.2,12.7-2.2
					l82.6-52.3c3.8-2.4,6.4-6.1,7.4-10.6c1-4.4,0.2-8.9-2.2-12.7C1212.2,623.7,1206.7,620.9,1201.1,620.9z"/>
			</g>
			<g>
				<path class="st12" d="M576.8,770.3l-82.6,52.3c-11.1,7-25.9,3.7-33-7.4l0,0c-7-11.1-3.7-25.9,7.4-33l82.6-52.3
					c11.1-7,25.9-3.7,33,7.4l0,0C591.3,748.4,587.9,763.3,576.8,770.3z"/>
				<path class="st9" d="M481.4,833.3c-10.3,0-20.3-5.1-26.2-14.4c-9.1-14.4-4.8-33.5,9.6-42.7l82.6-52.3
					c14.4-9.1,33.5-4.8,42.7,9.6c4.4,7,5.8,15.2,4,23.3c-1.8,8.1-6.6,14.9-13.6,19.4l-82.6,52.3
					C492.8,831.8,487.1,833.3,481.4,833.3z M564,733.2c-3.1,0-6.2,0.8-9,2.6l-82.6,52.3c-7.9,5-10.2,15.4-5.2,23.3
					c5,7.9,15.4,10.2,23.3,5.2l82.6-52.3c3.8-2.4,6.4-6.1,7.4-10.6c1-4.4,0.2-8.9-2.2-12.7C575.1,736,569.6,733.2,564,733.2z"/>
			</g>
			<g>
				<path class="st10" d="M1605.3,1050.5l-82.6,52.3c-11.1,7-25.9,3.7-33-7.4v0c-7-11.1-3.7-25.9,7.4-33l82.6-52.3
					c11.1-7,25.9-3.7,33,7.4l0,0C1619.7,1028.6,1616.4,1043.4,1605.3,1050.5z"/>
				<path class="st9" d="M1509.9,1113.5c-10.3,0-20.3-5.1-26.2-14.4c-4.4-7-5.8-15.2-4-23.3c1.8-8.1,6.6-14.9,13.6-19.4l82.6-52.3
					c14.4-9.1,33.5-4.8,42.7,9.6c9.1,14.4,4.8,33.5-9.6,42.7l-3.8-5.9l3.8,5.9l-82.6,52.3
					C1521.3,1111.9,1515.5,1113.5,1509.9,1113.5z M1592.4,1013.4c-3.2,0-6.2,0.9-8.9,2.6l-82.6,52.3c-3.8,2.4-6.4,6.1-7.4,10.6
					c-1,4.4-0.2,8.9,2.2,12.7c5,7.9,15.4,10.2,23.3,5.2l82.6-52.3c7.9-5,10.2-15.4,5.2-23.3c-2.4-3.8-6.1-6.4-10.6-7.4
					C1594.9,1013.5,1593.7,1013.4,1592.4,1013.4z"/>
			</g>
			<g>
				<path class="st11" d="M985.8,1478.5l-84.7-48.9c-11.4-6.6-15.3-21.3-8.7-32.6l0,0c6.6-11.4,21.3-15.3,32.6-8.7l84.7,48.9
					c11.4,6.6,15.3,21.3,8.7,32.6l0,0C1011.9,1481.2,997.2,1485.1,985.8,1478.5z"/>
				<path class="st9" d="M997.7,1488.7c-5.2,0-10.6-1.3-15.4-4.1h0l-84.7-48.9c-7.1-4.1-12.2-10.8-14.4-18.8
					c-2.1-8-1.1-16.3,3.1-23.5c8.5-14.8,27.5-19.8,42.2-11.3l84.7,48.9c7.1,4.1,12.2,10.8,14.4,18.8c2.1,8,1.1,16.3-3.1,23.5
					C1018.8,1483.2,1008.4,1488.7,997.7,1488.7z M989.3,1472.4c8.1,4.7,18.4,1.9,23.1-6.2c2.2-3.9,2.8-8.4,1.7-12.8
					c-1.2-4.4-4-8-7.8-10.3l-84.7-48.9c-8.1-4.7-18.4-1.9-23.1,6.2c-2.2,3.9-2.8,8.4-1.7,12.8c1.2,4.4,4,8,7.8,10.3L989.3,1472.4z"
					/>
			</g>
			<g>
				<path class="st10" d="M742.7,909.1l-93.9,27.3c-12.6,3.7-26-3.6-29.6-16.3l0,0c-3.7-12.6,3.6-26,16.3-29.6l93.9-27.3
					c12.6-3.7,26,3.6,29.6,16.3v0C762.6,892.1,755.3,905.5,742.7,909.1z"/>
				<path class="st9" d="M642.1,944.4c-5.1,0-10.2-1.3-14.9-3.8c-7.3-4-12.5-10.5-14.8-18.4c-2.3-7.9-1.4-16.3,2.6-23.5
					c4-7.3,10.5-12.5,18.4-14.8l93.9-27.3c16.4-4.8,33.6,4.7,38.3,21c4.8,16.4-4.7,33.6-21,38.3l-93.9,27.3
					C647.9,944,645,944.4,642.1,944.4z M736,869.3c-1.6,0-3.1,0.2-4.7,0.7l-93.9,27.3c-4.3,1.3-7.9,4.1-10.1,8.1
					c-2.2,4-2.7,8.5-1.4,12.8c1.3,4.3,4.1,7.9,8.1,10.1c4,2.2,8.5,2.7,12.8,1.4l93.9-27.3c8.9-2.6,14.1-12,11.5-20.9
					C750.1,874.1,743.3,869.3,736,869.3z"/>
			</g>
			<g>
				<path class="st8" d="M542.4,1238.4l-69.2-69.2c-9.3-9.3-9.3-24.5,0-33.8l0,0c9.3-9.3,24.5-9.3,33.8,0l69.2,69.2
					c9.3,9.3,9.3,24.5,0,33.8h0C567,1247.7,551.7,1247.7,542.4,1238.4z"/>
				<path class="st9" d="M559.3,1252.4c-8.3,0-16-3.2-21.9-9l-69.2-69.2c-5.8-5.8-9-13.6-9-21.9c0-8.3,3.2-16,9-21.9
					c5.8-5.8,13.6-9,21.9-9c8.3,0,16,3.2,21.9,9l69.2,69.2c5.8,5.8,9,13.6,9,21.9c0,8.3-3.2,16-9,21.9
					C575.4,1249.2,567.6,1252.4,559.3,1252.4z M490.2,1135.5c-4.5,0-8.8,1.7-11.9,4.9c-3.2,3.2-4.9,7.4-4.9,11.9
					c0,4.5,1.7,8.8,4.9,11.9l69.2,69.2c3.2,3.2,7.4,4.9,11.9,4.9c4.5,0,8.8-1.7,11.9-4.9c3.2-3.2,4.9-7.4,4.9-11.9
					c0-4.5-1.7-8.8-4.9-11.9l-69.2-69.2C499,1137.2,494.7,1135.5,490.2,1135.5z"/>
			</g>
			<g>
				<path class="st12" d="M1526,1338l-93.7-28c-12.6-3.8-19.8-17.1-16.1-29.7l0,0c3.8-12.6,17.1-19.8,29.7-16.1l93.7,28
					c12.6,3.8,19.8,17.1,16.1,29.7l0,0C1552,1334.6,1538.6,1341.8,1526,1338z"/>
				<path class="st9" d="M1532.8,1346.1c-3,0-5.9-0.4-8.8-1.3l-93.7-28c-16.3-4.9-25.7-22.1-20.8-38.5c2.4-7.9,7.7-14.4,15-18.3
					c7.3-3.9,15.6-4.8,23.5-2.4l93.7,28c7.9,2.4,14.4,7.7,18.3,14.9c3.9,7.3,4.8,15.6,2.4,23.5c-2.4,7.9-7.7,14.4-15,18.3
					C1542.9,1344.8,1537.9,1346.1,1532.8,1346.1z M1439.1,1270.3c-2.8,0-5.5,0.7-8,2.1c-4,2.2-6.9,5.7-8.2,10
					c-2.7,8.9,2.4,18.3,11.3,21l93.7,28c4.3,1.3,8.8,0.8,12.8-1.3c4-2.2,6.9-5.7,8.2-10c1.3-4.3,0.8-8.9-1.3-12.8
					c-2.2-4-5.7-6.9-10-8.2l-93.7-28C1442.4,1270.5,1440.7,1270.3,1439.1,1270.3z"/>
			</g>
			<g>
				<path class="st12" d="M644.4,1457.3h-97.8c-13.1,0-23.9-10.8-23.9-23.9v0c0-13.1,10.8-23.9,23.9-23.9h97.8
					c13.1,0,23.9,10.8,23.9,23.9v0C668.3,1446.5,657.6,1457.3,644.4,1457.3z"/>
				<path class="st9" d="M644.4,1464.3h-97.8c-17.1,0-30.9-13.9-30.9-30.9c0-17,13.9-30.9,30.9-30.9h97.8
					c17.1,0,30.9,13.9,30.9,30.9C675.3,1450.4,661.5,1464.3,644.4,1464.3z M546.6,1416.5c-9.3,0-16.9,7.6-16.9,16.9
					c0,9.3,7.6,16.9,16.9,16.9h97.8c9.3,0,16.9-7.6,16.9-16.9c0-9.3-7.6-16.9-16.9-16.9H546.6z"/>
			</g>
			<g>
				<path class="st11" d="M1511.3,850.5l-79-57.7c-10.6-7.8-12.9-22.8-5.2-33.4v0c7.8-10.6,22.8-12.9,33.4-5.2l79,57.7
					c10.6,7.8,12.9,22.8,5.2,33.4l0,0C1537,856,1522,858.3,1511.3,850.5z"/>
				<path class="st9" d="M1525.4,862.2c-6.3,0-12.7-1.9-18.2-5.9l-79-57.7c-6.6-4.9-11-12-12.3-20.2c-1.3-8.2,0.7-16.3,5.6-23
					c4.9-6.6,12-11,20.2-12.3c8.2-1.3,16.3,0.7,23,5.6l79,57.7c13.8,10.1,16.8,29.4,6.7,43.2
					C1544.4,857.8,1534.9,862.2,1525.4,862.2z M1515.5,844.9c7.5,5.5,18.1,3.8,23.6-3.7c5.5-7.5,3.8-18.1-3.7-23.6l-79-57.7
					c-3.6-2.6-8.1-3.7-12.5-3c-4.5,0.7-8.4,3.1-11,6.7c-2.6,3.6-3.7,8.1-3,12.5c0.7,4.5,3.1,8.4,6.7,11L1515.5,844.9z"/>
			</g>
			<g>
				<path class="st8" d="M1123.6,1549.6l60.9-76.5c8.2-10.3,23.3-12,33.6-3.8h0c10.3,8.2,12,23.3,3.8,33.6l-60.9,76.5
					c-8.2,10.3-23.3,12-33.6,3.8v0C1117.1,1575,1115.4,1559.9,1123.6,1549.6z"/>
				<path class="st9" d="M1142.3,1595.4c-6.8,0-13.5-2.2-19.2-6.7c-6.4-5.1-10.5-12.5-11.4-20.7c-0.9-8.2,1.4-16.3,6.5-22.7
					l60.9-76.5c5.1-6.4,12.5-10.5,20.7-11.4c8.2-0.9,16.3,1.4,22.7,6.5c6.4,5.1,10.5,12.5,11.4,20.7c0.9,8.2-1.4,16.3-6.5,22.7
					l-60.9,76.5C1160.4,1591.4,1151.4,1595.4,1142.3,1595.4z M1203.3,1471.1c-0.6,0-1.3,0-2,0.1c-4.5,0.5-8.5,2.7-11.3,6.2
					l-60.9,76.5c-2.8,3.5-4,7.9-3.5,12.4c0.5,4.5,2.7,8.5,6.2,11.3c3.5,2.8,7.9,4,12.4,3.5c4.5-0.5,8.5-2.7,11.3-6.2l60.9-76.5
					c2.8-3.5,4-7.9,3.5-12.4c-0.5-4.5-2.7-8.5-6.2-11.3C1210.7,1472.4,1207.1,1471.1,1203.3,1471.1z"/>
			</g>
		</g>
	</g>
	<g>
		<g>
			<circle class="st7" cx="946.6" cy="547.2" r="23.2"/>
			<circle class="st7" cx="712.5" cy="785.2" r="23.2"/>
			<circle class="st7" cx="479.2" cy="1356.5" r="23.2"/>
			<circle class="st7" cx="736.7" cy="1114.5" r="23.2"/>
			
				<ellipse transform="matrix(0.9216 -0.3882 0.3882 0.9216 -441.8173 432.8899)" class="st7" cx="850.6" cy="1310.1" rx="23.2" ry="23.2"/>
			<circle class="st7" cx="873.8" cy="1572.4" r="23.2"/>
			<circle class="st7" cx="1346.7" cy="1442.3" r="23.2"/>
			<circle class="st7" cx="1608.7" cy="1209.9" r="23.2"/>
			
				<ellipse transform="matrix(0.1602 -0.9871 0.9871 0.1602 564.287 2434.3608)" class="st7" cx="1712.8" cy="885.6" rx="23.2" ry="23.2"/>
			<circle class="st7" cx="1373.4" cy="710.8" r="23.2"/>
			<circle class="st7" cx="1070.2" cy="398.8" r="23.2"/>
			<circle class="st7" cx="502.4" cy="990" r="23.2"/>
		</g>
		<g>
			<g>
				<circle class="st13" cx="932.2" cy="538.3" r="23.2"/>
				<path class="st9" d="M932.2,566.4c-15.5,0-28.1-12.6-28.1-28.1c0-15.5,12.6-28.1,28.1-28.1c15.5,0,28.1,12.6,28.1,28.1
					C960.3,553.8,947.7,566.4,932.2,566.4z M932.2,520c-10.1,0-18.3,8.2-18.3,18.3c0,10.1,8.2,18.3,18.3,18.3
					c10.1,0,18.3-8.2,18.3-18.3C950.5,528.2,942.3,520,932.2,520z"/>
			</g>
			<g>
				
					<ellipse transform="matrix(0.9239 -0.3827 0.3827 0.9239 -243.9242 326.2261)" class="st13" cx="698.1" cy="776.3" rx="23.2" ry="23.2"/>
				<path class="st9" d="M698.1,804.4c-15.5,0-28.1-12.6-28.1-28.1c0-15.5,12.6-28.1,28.1-28.1c15.5,0,28.1,12.6,28.1,28.1
					C726.2,791.8,713.6,804.4,698.1,804.4z M698.1,757.9c-10.1,0-18.3,8.2-18.3,18.3c0,10.1,8.2,18.3,18.3,18.3
					c10.1,0,18.3-8.2,18.3-18.3C716.4,766.2,708.2,757.9,698.1,757.9z"/>
			</g>
			<g>
				
					<ellipse transform="matrix(0.9216 -0.3882 0.3882 0.9216 -486.6333 286.0589)" class="st13" cx="464.8" cy="1347.6" rx="23.2" ry="23.2"/>
				<path class="st9" d="M464.8,1375.7c-15.5,0-28.1-12.6-28.1-28.1s12.6-28.1,28.1-28.1s28.1,12.6,28.1,28.1
					S480.3,1375.7,464.8,1375.7z M464.8,1329.2c-10.1,0-18.3,8.2-18.3,18.3s8.2,18.3,18.3,18.3c10.1,0,18.3-8.2,18.3-18.3
					S474.9,1329.2,464.8,1329.2z"/>
			</g>
			<g>
				
					<ellipse transform="matrix(0.2321 -0.9727 0.9727 0.2321 -520.7452 1551.6168)" class="st13" cx="722.3" cy="1105.6" rx="23.2" ry="23.2"/>
				<path class="st9" d="M722.3,1133.7c-15.5,0-28.1-12.6-28.1-28.1s12.6-28.1,28.1-28.1s28.1,12.6,28.1,28.1
					S737.8,1133.7,722.3,1133.7z M722.3,1087.3c-10.1,0-18.3,8.2-18.3,18.3s8.2,18.3,18.3,18.3c10.1,0,18.3-8.2,18.3-18.3
					S732.4,1087.3,722.3,1087.3z"/>
			</g>
			<g>
				<circle class="st13" cx="836.2" cy="1301.1" r="23.2"/>
				<path class="st9" d="M836.2,1329.2c-15.5,0-28.1-12.6-28.1-28.1c0-15.5,12.6-28.1,28.1-28.1c15.5,0,28.1,12.6,28.1,28.1
					C864.3,1316.6,851.7,1329.2,836.2,1329.2z M836.2,1282.8c-10.1,0-18.3,8.2-18.3,18.3c0,10.1,8.2,18.3,18.3,18.3
					c10.1,0,18.3-8.2,18.3-18.3C854.5,1291,846.3,1282.8,836.2,1282.8z"/>
			</g>
			<g>
				<circle class="st13" cx="859.4" cy="1563.5" r="23.2"/>
				<path class="st9" d="M859.4,1591.6c-15.5,0-28.1-12.6-28.1-28.1c0-15.5,12.6-28.1,28.1-28.1c15.5,0,28.1,12.6,28.1,28.1
					C887.5,1579,874.9,1591.6,859.4,1591.6z M859.4,1545.2c-10.1,0-18.3,8.2-18.3,18.3c0,10.1,8.2,18.3,18.3,18.3
					c10.1,0,18.3-8.2,18.3-18.3C877.7,1553.4,869.5,1545.2,859.4,1545.2z"/>
			</g>
			<g>
				
					<ellipse transform="matrix(0.7071 -0.7071 0.7071 0.7071 -623.345 1361.8792)" class="st13" cx="1332.3" cy="1433.4" rx="23.2" ry="23.2"/>
				<path class="st9" d="M1332.3,1461.5c-15.5,0-28.1-12.6-28.1-28.1c0-15.5,12.6-28.1,28.1-28.1c15.5,0,28.1,12.6,28.1,28.1
					C1360.4,1448.9,1347.8,1461.5,1332.3,1461.5z M1332.3,1415.1c-10.1,0-18.3,8.2-18.3,18.3s8.2,18.3,18.3,18.3s18.3-8.2,18.3-18.3
					S1342.4,1415.1,1332.3,1415.1z"/>
			</g>
			<g>
				
					<ellipse transform="matrix(0.9239 -0.3827 0.3827 0.9239 -338.225 701.5414)" class="st13" cx="1594.3" cy="1201" rx="23.2" ry="23.2"/>
				<path class="st9" d="M1594.3,1229.1c-15.5,0-28.1-12.6-28.1-28.1c0-15.5,12.6-28.1,28.1-28.1c15.5,0,28.1,12.6,28.1,28.1
					C1622.4,1216.5,1609.8,1229.1,1594.3,1229.1z M1594.3,1182.6c-10.1,0-18.3,8.2-18.3,18.3c0,10.1,8.2,18.3,18.3,18.3
					c10.1,0,18.3-8.2,18.3-18.3C1612.7,1190.9,1604.4,1182.6,1594.3,1182.6z"/>
			</g>
			<g>
				<circle class="st13" cx="1698.4" cy="876.6" r="23.2"/>
				<path class="st9" d="M1698.4,904.8c-15.5,0-28.1-12.6-28.1-28.1c0-15.5,12.6-28.1,28.1-28.1c15.5,0,28.1,12.6,28.1,28.1
					C1726.5,892.1,1713.9,904.8,1698.4,904.8z M1698.4,858.3c-10.1,0-18.3,8.2-18.3,18.3c0,10.1,8.2,18.3,18.3,18.3
					c10.1,0,18.3-8.2,18.3-18.3C1716.7,866.5,1708.5,858.3,1698.4,858.3z"/>
			</g>
			<g>
				<circle class="st13" cx="1359" cy="701.9" r="23.2"/>
				<path class="st9" d="M1359,730c-15.5,0-28.1-12.6-28.1-28.1c0-15.5,12.6-28.1,28.1-28.1c15.5,0,28.1,12.6,28.1,28.1
					C1387.1,717.4,1374.5,730,1359,730z M1359,683.6c-10.1,0-18.3,8.2-18.3,18.3c0,10.1,8.2,18.3,18.3,18.3
					c10.1,0,18.3-8.2,18.3-18.3C1377.4,691.8,1369.1,683.6,1359,683.6z"/>
			</g>
			<g>
				<circle class="st13" cx="1055.8" cy="389.9" r="23.2"/>
				<path class="st9" d="M1055.8,418c-15.5,0-28.1-12.6-28.1-28.1s12.6-28.1,28.1-28.1c15.5,0,28.1,12.6,28.1,28.1
					S1071.3,418,1055.8,418z M1055.8,371.5c-10.1,0-18.3,8.2-18.3,18.3s8.2,18.3,18.3,18.3c10.1,0,18.3-8.2,18.3-18.3
					S1065.9,371.5,1055.8,371.5z"/>
			</g>
			<g>
				<circle class="st13" cx="488" cy="981.1" r="23.2"/>
				<path class="st9" d="M488,1009.2c-15.5,0-28.1-12.6-28.1-28.1c0-15.5,12.6-28.1,28.1-28.1s28.1,12.6,28.1,28.1
					C516.1,996.6,503.5,1009.2,488,1009.2z M488,962.8c-10.1,0-18.3,8.2-18.3,18.3c0,10.1,8.2,18.3,18.3,18.3
					c10.1,0,18.3-8.2,18.3-18.3C506.3,971,498.1,962.8,488,962.8z"/>
			</g>
		</g>
	</g>
</g>
</svg>
