<?xml version="1.0" encoding="utf-8"?>
<!-- Generator: Adobe Illustrator 26.3.1, SVG Export Plug-In . SVG Version: 6.00 Build 0)  -->
<svg version="1.1" id="Capa_1" xmlns="http://www.w3.org/2000/svg" xmlns:xlink="http://www.w3.org/1999/xlink" x="0px" y="0px"
	 viewBox="0 0 247.7 84.4" style="enable-background:new 0 0 247.7 84.4;" xml:space="preserve">
<style type="text/css">
	.st0{fill:#B3CB21;}
	.st1{fill:#144547;}
	.st2{fill:#174746;}
	.st3{fill:#00B1C7;}
</style>
<g id="Au1LgB.tif">
	<g>
		<g>
			<path class="st0" d="M163.7,6.9c1.8,1.5,2.1,2.6,1.2,4.7c-0.4,1.1-0.9,2.2-1.4,3.3c-1.2,2.8-1.5,5.7-0.6,8.7
				c0.5,1.8,0.8,3.7,0.7,5.6c0,1.1,0.1,2.1,0.5,3.1c0.4,1,0.5,2,0.5,3.1c0,1.8,0.4,3.5,1.3,5.2c0.5-3.6,3.7-5.2,5.8-7.6
				c1.7-1.9,4.7-1.5,7.1,0.2c1.2,0.9,2.1,2,2.5,3.5c0.2,0.7,0.4,1.4,0.7,2.1c0.1-1.3,0-2.5,0.1-3.7c0.1-1.2,0.2-2.4,0.2-3.7
				c0-1.3,1-2.3,2.3-2.5c1.2-0.2,2.1,0.4,2.6,1.7c0.3,0.8,0.5,0.7,1,0.2c0.9-0.8,1.9-1.1,3-0.5c0.6,0.3,1.1,0.4,1.8,0.3
				c2.3-0.1,3.8,1.4,3.5,3.8c-0.1,0.5,0.1,0.9,0.5,1.3c1,1.1,1.4,2.4,1.3,3.8c0,0.3-0.1,0.6,0.3,0.6c0.3,0,0.2-0.4,0.2-0.6
				c0.6-2.8,1.1-5.7,1.9-8.4c0.5-1.7,1.5-3.3,2.4-4.9c0.7-1.2,2.2-1.7,3.3-1.4c1.1,0.3,1.7,1,1.9,2.1c0.1,1.1-0.3,2.1-0.9,2.9
				c-0.5,0.8-0.7,1.4-0.2,2.3c0.5,0.8,0.4,1.8,0,2.7c-0.7,1.7-0.7,3.5-1.3,5.3c-0.1,0.2-0.4,0.5,0.2,0.6c2.7,0.7,5.3,1.7,7.9,3
				c0.1-1.1,0.1-2.2-0.4-3.1c-0.6-1.3-0.9-2.6-0.8-3.9c0.2-2.1-0.4-4.1-0.5-6.2c0-0.9,0.1-1.8,0.6-2.6c0.5-0.7,0.3-1.6,0.2-2.5
				c-0.1-0.7-0.2-1.3-0.1-2c0.1-1,0.6-1.7,1.7-2c1-0.2,1.8,0.2,2.3,1c1.2,2,2,4.2,2.6,6.4c0.4,1.6,0.9,3.2,2,4.6
				c1.1,1.4,1,3.1,0.9,4.8c-0.1,1.6,0.5,3,1.3,4.3c0.3,0.6,0.7,0.7,1.3,0.5c2.6-0.9,5.2-2,7.3-3.9c1.4-1.3,3.2-1.9,4.9-2.6
				c1-0.4,2.2,0.1,2.7,1c0.6,1,0.4,2-0.4,2.8c-1.8,1.7-3.6,3.5-5.8,4.8c-1.5,0.9-2.8,2.2-4.5,2.9c-0.3,0.1-0.4,0.4-0.5,0.6
				c-0.9,1.9-2.4,3.2-4.4,3.9c-1.3,0.5-2.4,1.2-3,2.5c-0.3,0.8-1,1.3-1.7,1.7c-1,0.7-2.1,1.5-3.1,2.2c-0.7,0.5-1.4,1.1-1.6,2.1
				c-0.2,0.9-0.9,1.5-1.5,2.2c-0.9,1-1.7,2.1-2.3,3.3c-0.2,0.3-0.3,0.7-0.6,1c-1.8,1.4-3.1,3.3-4.9,4.7c-0.7,0.5-1.4,1-2.2,1.1
				c-2.6,0.1-4.3,1.7-6,3.3c-0.5,0.5-1.1,0.9-1.8,1.1c-0.9,0.2-1.8,0-2.4-0.7c-0.6-0.7-0.9-1.4-0.6-2.3c0.2-0.8,0.6-1.5,1.2-2.1
				c1.7-1.6,3.4-3.3,5.6-4.3c0.3-0.2,0.7-0.4,0.9-0.6c0.2-0.2,0.4-0.5,0-0.6c-2.4-0.6-2.4-2.5-2.5-4.4c0-0.1,0-0.2,0-0.2
				c-0.1,0-0.2-0.1-0.2,0c-1.9,2.3-4.5,1-5.2-1.1c-0.6-1.8-1.5-3.6-1.3-5.6c0-0.2,0-0.5-0.1-0.7c-0.8-1-1.5-2.1-2.3-3.2
				c-0.9,1.2-0.6,2.6-0.9,3.8c-0.3,1.4-1.1,2.3-2.2,2.5c-1.9,0.2-3.2-1.1-3-3c0.1-0.8,0.2-1.7,0-2.5c-0.2-0.8,0.2-1.6,0.1-2.7
				c-1.3,1.9-2.6,3.6-4,5c-1.7,1.7-3.9,1.6-6,1.9c-0.7,0.1-1.4-0.4-1.9-1c-0.6-0.8-1.4-1.2-2.5-1.3c-1.4-0.1-2.4-1.1-2.6-2.5
				c-0.1-0.8-0.2-1.7-0.1-2.5c0.1-0.7,0.1-1.5-0.1-2.4c-1.4,2.1-1.4,2.8-0.5,4.8c0.4,1,0.5,1.9,0.3,2.9c-0.1,0.6,0,1.1,0.4,1.5
				c1.1,1.2,1.2,2.7,0.8,4.1c-0.3,1-0.2,1.9,0.5,2.7c1.2,1.7,1.2,3.8,1.3,5.8c0.1,1.6-1.7,2.5-3.1,1.7c-0.1-0.1-0.3-0.2-0.4-0.2
				c-2.1-0.3-2.8-1.6-2.4-3.5c0.1-0.5-0.3-0.7-0.6-0.9c-1.1-0.7-1.6-1.7-1.6-3c0-0.3,0.1-0.6-0.2-0.9c-1.6-1.5-1.3-3.3-0.9-5.1
				c0.2-0.6,0-1-0.3-1.5c-1.1-1.7-2-3.5-1.8-5.5c0.2-2.4-0.6-4.5-0.9-6.9c-0.7,0.5-1,1-1,1.8c0.1,2.2-0.2,4.3-1.4,6.2
				c-0.3,0.5-0.3,1.1-0.3,1.7c0,0.7,0,1.5,0,2.2c-0.1,1.3-0.8,2.2-1.8,2.6c-1,0.3-2.2-0.1-3-1c-0.8-0.9-1-2.1-1.1-3.2
				c-0.1-0.4-0.1-0.7-0.5-0.9c-1.7-0.7-2.1-2.2-2-3.8c0.1-1.7-0.2-3.3-0.8-4.8c-0.6-1.5-1-3-1.2-4.6c0-0.4-0.1-0.8-0.4-1.1
				c-0.3-0.2-0.5-0.7-0.9-0.6c-0.5,0.1-0.1,0.6-0.2,0.9c-0.4,2.4-0.8,4.9-1.2,7.3c-0.3,1.7-0.6,3.3-0.4,5.1c0.2,1.4-0.3,2.5-1.4,3.4
				c-1,0.9-1.4,1.9-1.1,3.2c0.5,2,0.5,4-0.4,6c-0.4,0.7-0.5,1.6-0.6,2.3c-0.1,0.6-0.3,1.2-0.6,1.7c-0.5,1-1.3,1.8-2.6,1.6
				c-1.2-0.2-1.8-1.1-2-2.2c-0.1-0.5-0.1-1-0.2-1.5c-0.1-1.8,0.3-3.7-0.3-5.5c-0.1-0.1-0.1-0.3,0-0.5c0.7-2.2,0.2-4.3-0.4-6.5
				c-0.6-2.1-0.2-4.3,1.3-6.1c1.5-1.7,1.8-3.7,1.4-5.8c-0.6-3-0.3-5.8,0.7-8.7c0.8-2.2,1.4-4.5,1.6-6.9c0.1-1.4,0.6-2.7,1.3-3.9
				c0.9-1.4,1.8-1.6,3.2-0.7c0.4,0.2,0.6,0.2,0.9-0.1c0.5-0.6,0.9-1.3,1-2.2c0.2-2.1,1.5-3.6,2.9-5.1c0.6-0.7,1.5-0.7,2.4-0.3
				c1,0.4,1.5,1.2,1.6,2.2c0.1,1.1-0.3,2-0.6,3c-0.3,0.9-0.6,1.7-0.9,2.6c-0.3,1-0.3,1.9,0.5,2.7c0.8,0.8,0.6,1.9,0.6,2.9
				c0,1,0,1.9,0.5,2.8c0.3,0.6,0.3,1.3,0.2,1.9c0,0.5,0.2,1.1,0.7,1.2c0.6,0.1,0.5-0.5,0.7-0.8c0.2-0.3,0.3-0.7,0.5-0.9
				c1.6-1.6,1.9-3.8,2.3-5.8c0.6-2.6,1.2-5.2,3.1-7.3c0.8-0.9,0.9-2,1-3.1c0.1-1.2,0.5-2.2,1.3-3.1c0.7-0.7,1.3-1.5,1.6-2.4
				c0.4-1,1.2-1.5,2-2.2C162.6,6.9,163.2,6.9,163.7,6.9z M157,32.3c0.1,1.1,0,2.2,1,3c1,0.8,1.2,1.7,0.7,3c-0.8,2.1-1.7,4.3-0.9,6.5
				c0.6,1.7,0.6,3.4,0.6,5.1c0,1.6,0.4,3.2,1.4,4.4c1,1.3,1,2.5,0.7,3.9c-0.1,0.3-0.1,0.6-0.2,0.9c-0.1,0.9,0.1,1.6,1,2.1
				c0.5,0.2,0.5,0.6,0.4,1c-0.2,1.4,0.3,2.5,1.6,3.1c0.6,0.3,0.8,0.8,0.7,1.4c-0.1,0.5-0.2,0.9-0.1,1.4c0,0.5,0.4,1.1,1,0.8
				c0.5-0.3,0.6,0,0.8,0.3c0.2,0.3,0.5,0.4,0.9,0.3c0.3-0.1,0.5-0.4,0.5-0.7c-0.4-1.6-0.1-3.4-1.1-4.8c-0.9-1.2-1-2.5-0.6-3.8
				c0.3-1.1,0.2-2.2-0.6-3c-0.6-0.7-0.8-1.4-0.6-2.3c0.2-1.2,0-2.2-0.5-3.2c-0.6-1.1-0.6-2.1,0-3.2c0.7-1.4,1-2.9,0.5-4.5
				c-0.2-0.5-0.1-1.1,0-1.6c0.3-1.1,0.5-2.3-0.5-3.3c-0.3-0.3-0.3-0.8-0.2-1.2c0.2-1.3,0.1-2.7-0.3-3.9c-0.7-2-0.9-4-0.9-6.1
				c0-1.5-0.4-2.9-0.8-4.3c-0.8-2.8-0.4-5.4,0.5-8.1c0.5-1.6,1.3-3.1,1.9-4.6c0.4-1.1,0.2-2.2-0.5-2.3c-0.9-0.2-1.4,0.6-1.7,1.2
				c-0.5,1.1-1.2,2-2,2.9c-0.6,0.7-0.9,1.4-0.9,2.3c-0.1,1.5-0.5,2.9-1.5,4.1c-1.5,1.7-2,3.9-2.5,6c-0.5,2.1-0.6,4.3-2.1,6
				c-0.8,0.9-1.3,2-1.6,3.1c-0.6,1.9-0.7,3.8-0.7,5.7c0,1.4-0.1,2.9-0.7,4.2c-1-2.9-1.3-5.8-1-8.8c0.1-0.6,0.2-1.4-0.3-1.8
				c-0.9-0.7-0.7-1.5-0.7-2.4c0-0.3,0.1-0.7-0.1-0.9c-1-1.2-0.6-2.5-0.6-3.8c0-0.6,0.2-1.4-0.4-1.8c-1.1-0.8-1-1.9-0.8-3
				c0.1-0.8,0.4-1.7,0.6-2.5c0.4-1,0.7-2.1,1-3.2c0.1-0.6-0.1-1-0.7-1.3c-0.5-0.3-0.9-0.1-1.1,0.2c-0.7,0.9-1.8,1.8-1.9,3
				c-0.2,2.4-2.2,3.9-2.6,6.2c-0.2-0.9-0.5-1.6-1.6-0.9c0-0.6,0.1-1.1-0.5-1.3c-0.5-0.1-0.8,0.4-1.1,0.7c-0.5,0.9-0.9,1.9-1,2.9
				c-0.2,2.9-1,5.6-2,8.3c-0.7,2-0.9,4.1-0.5,6.2c0.5,2.9,0.4,5.6-1.7,8c-1.4,1.6-1.3,3.6-0.7,5.5c0.3,0.8,0.7,1.7,0.6,2.6
				c-0.3,2.1-0.2,4.3,0,6.4c0.1,1-0.1,2.1,0,3.1c0,0.8,0,2,1.1,2.1c1.1,0.1,1.2-1.1,1.4-1.8c0.3-1,0.3-2.1,0.8-3
				c0.8-1.6,0.8-3.3,0.4-5c-0.5-1.9,0.1-3.4,1.4-4.6c0.8-0.7,1.1-1.5,1-2.6c-0.1-0.7-0.3-1.4-0.2-2.1c0.4-2.9,0.9-5.9,1.4-8.8
				c0.2-0.9,0.3-1.8,0-2.6c-0.6-1.8-0.4-3.6,0.3-5.3c0.2-0.7,0.3-1.5,1-2.2c0,0.9,0.1,1.5,0,2.2c-0.5,2.3,1.2,3.5,2.3,5
				c0.5,0.7,0.9,1.2,1,2.1c0.2,1.2,0.2,2.4,0.8,3.5c0.9,2,1.3,4.1,1.2,6.3c-0.1,1.5,0.2,2.1,1.7,2.6c0.6,0.2,0.7,0.6,0.8,1.1
				c0,1,0.2,2.1,0.7,3c0.3,0.6,0.8,1,1.5,0.8c0.7-0.1,0.9-0.7,1-1.4c0-0.5,0-1,0-1.5c-0.1-1.3,0.2-2.5,0.8-3.6
				c0.6-1.1,1-2.4,0.9-3.7c-0.1-1.7,0.4-3.1,1.5-4.4c1-1.2,1.6-2.8,1.3-4.4C156.1,35.6,156.6,34,157,32.3z M222.9,45.9
				c0.4-1,0.1-1.9-0.5-2.7c-1-1.5-1.5-3.1-1.4-4.9c0.1-1.7,0.3-3.4-1.3-4.7c-0.3-0.2-0.4-0.7-0.5-1.1c-1.1-2.8-1.5-5.8-3-8.5
				c-0.3-0.5-0.4-1.2-1.2-1c-0.7,0.2-0.6,1-0.4,1.5c0.2,1.1,0.2,2.2,0.2,3.3c0,0.3,0.1,0.7-0.2,0.8c-0.7,0.4-0.7,1-0.6,1.6
				c0.3,2.5,0.5,5,0.5,7.6c0,0.6,0.2,1.2,0.5,1.8c0.6,1.2,0.8,2.5,0.8,3.8c0,0.7,0.3,1.3,0.9,1.5c0.5,0.2,0.5,0.4,0.4,0.8
				c-0.3,1.2-0.6,2.4-1,3.5c-0.3,0.9-0.6,1.8-0.3,2.7c0.2,0.6-0.1,0.9-0.7,1.1c-1.1,0.4-2.1,0.7-3.2,1.1c-0.7,0.3-1.3,0.7-0.8,1.5
				c0.4,0.6,0.1,0.7-0.3,0.9c-1,0.5-1.8,1.3-2.6,2.1c-0.4,0.5-0.7,1.1-0.3,1.7c0.7,0.9,0.3,1.5-0.4,2c-1.6,1.3-2.8,3.1-4.4,4.3
				c-0.3,0.2-0.5,0.5-0.6,0.8c-0.5,1.1-1.4,1.6-2.3,2.1c-1.9,1-3.5,2.4-5,4c-0.6,0.6-1.3,1.5-0.4,2.3c0.8,0.7,1.6,0,2.2-0.6
				c0.1-0.1,0.1-0.1,0.2-0.2c1.6-1.4,3-3,5.4-3.2c1.6-0.1,2.8-0.9,3.8-2.1c1.7-2,4-3.5,5-6c0.4-1,1.4-1.7,2-2.5
				c0.3-0.3,0.6-0.7,0.6-1.1c0.2-1.3,1.1-2,2-2.7c1-0.7,2-1.4,3-2.1c0.5-0.4,1.1-0.8,1.4-1.4c0.8-1.7,2.1-2.6,3.8-3.2
				c1.5-0.5,2.8-1.3,3.4-2.8c0.4-0.9,1-1.5,1.9-1.9c2.2-1.1,4.1-2.7,6-4.1c1.1-0.8,2.1-1.9,3.2-2.9c0.3-0.3,0.6-0.7,0.2-1.1
				c-0.2-0.3-0.7-0.5-1-0.3c-1.4,0.8-3,1.2-4.3,2.3c-1.5,1.4-3.3,2.4-5.2,3.3C226.3,44.3,224.2,44.2,222.9,45.9z M186.7,35
				c-0.5-0.7-0.4-1.3-0.4-1.9c0-0.6,0-1.2-0.2-1.8c-0.2-0.6-0.6-1-1.3-0.9c-0.8,0.1-1,0.6-1.1,1.3c0,0.2,0,0.3,0,0.5
				c-0.4,3,0.1,6.1-0.7,9.1c-0.3,1.1-0.1,2.1,1,2.7c0.4,0.2,0.5,0.6,0.4,0.9c-0.7,1.6-0.3,3.2-0.2,4.8c0.1,1.7,0.1,3.5-0.1,5.3
				c-0.1,0.8,0,1.6,1,1.7c1,0.1,1.3-0.7,1.4-1.5c0.2-0.9-0.1-1.9,0.4-2.7c0.9-1.6,0.8-3.3,0.6-5.1c-0.1-0.5-0.1-1,0.3-1.6
				c0.2,0.8,0.1,1.5,0.1,2.1c0,0.5-0.1,1.1,0.4,1.4c1.4,1.1,2.1,2.9,3.3,4.2c0.6,0.7,0.9,1.4,0.9,2.3c-0.1,1.8,0.9,3.4,1.2,5.1
				c0.1,0.4,0.5,0.7,0.8,1c0.8,0.6,1.8,0.1,1.9-0.9c0.1-0.7-0.1-1.4-0.5-2c-0.6-1-0.8-2.1-0.7-3.2c0.1-1.4,0.2-2.9-0.7-4.1
				c-0.7-0.9-1.1-1.9-0.9-3.1c0.1-0.6-0.3-1.1-0.6-1.6c-0.5-0.7-1.1-1.4-1.9-1.8c-0.4-0.2-0.8-0.7-0.2-0.9c1.1-0.5,1.9-1.4,3.1-1.8
				c2.9-1,3.6-3.3,1.9-5.7c-0.5-0.6-1.1-1.3-1-2.1c0.3-1.8-0.3-2.6-2.2-2.4c-0.6,0.1-1.2,0-1.8-0.3c-0.9-0.5-1.7-0.3-2.2,0.5
				C188.1,33.1,187.2,33.8,186.7,35z M202.8,64.8c0.7-1.1,1.7-1.7,2.6-2.5c0.7-0.6,1.1-1,0.7-2c-0.3-0.8,0.1-1.6,0.6-2.3
				c0.5-0.7,1.2-1.3,1.9-1.9c0.4-0.3,0.7-0.5,0.7-1c0.1-1.3,0.9-1.9,2-2.3c0.7-0.3,1.4-0.4,2.1-0.7c0.3-0.1,0.7-0.2,0.7-0.7
				c-0.2-1.5,0.5-2.7,0.9-4c0.1-0.3,0.4-0.6,0-0.8c-0.3-0.2-0.5,0.1-0.7,0.4c-0.2,0.4-0.5,0.7-0.7,1.1c-0.6,1.1-1.6,1.7-2.9,1.5
				c-0.7-0.1-1.4-0.3-2-0.7c-0.9-0.5-2-0.1-2.9-0.4c-0.2,0-0.4,0.1-0.4,0.4c0,1-0.5,1.9-0.3,2.9c0.1,0.9,0.2,1.8-0.3,2.6
				c-0.5,1-0.7,2.1-0.7,3.2C203.9,60,203.6,62.4,202.8,64.8z M204,47.8c0,0,0-0.2,0-0.3c0-0.4-0.3-0.9,0.2-1.2
				c0.4-0.2,0.7,0.2,1,0.5c0.7,0.5,1.5,0.6,2.2,0.5c0.8-0.1,1.4,0,2.1,0.4c1.4,0.9,2,0.7,2.8-0.7c0-0.1,0.1-0.1,0.2-0.1
				c1.2-1.1,1-1.9-0.6-2.5c-0.6-0.2-1.2-0.1-1.7-0.6c-0.6-0.6-1.4-0.8-2.3-0.7c-0.2,0-0.6,0.1-0.7,0c-0.7-1.2-1.7-0.9-2.7-0.7
				c-0.5,0.1-0.9,0.1-0.6-0.6c1-2.3,1.2-4.8,2-7.1c0.3-0.8,0.4-1.8-0.3-2.5c-0.6-0.5-0.5-1-0.1-1.6c0.6-0.9,1.1-1.8,1.4-2.8
				c0.1-0.5,0.1-0.9-0.3-1.3c-0.4-0.3-0.8-0.4-1.3-0.2c-0.6,0.2-1,0.7-1.3,1.3c-0.9,2.1-2.4,3.9-2.3,6.3c0,0.1-0.1,0.3-0.1,0.4
				c-0.6,2.2-1.1,4.4-1.3,6.6c0,0.4,0,1-0.4,1c-1.2-0.1-2,1-3.2,1c-0.6,0-1,0.3-1.1,0.9c-0.1,0.6,0.4,1.2,0.9,1.1
				c1.3,0,2.3,0.9,3.5,1.2c0.6,0.1,0.6,0.4,0.3,0.8c-0.6,1-1,2.4-0.8,3.4c0.2,1.6,0,3.2,0.1,4.8c0,0.8,0.3,1.6,0.3,2.4
				c0.1,1.3-0.4,2.4-0.6,3.6c-0.2,1.3-0.2,2.5,0.3,3.7c0.1,0.3,0.4,0.6,0.8,0.6c0.4,0,0.6-0.2,0.6-0.6c0.3-1.5,1.2-3,1.2-4.6
				c-0.1-3.3,1.6-6.3,1.2-9.6c0-0.1,0-0.2,0.1-0.3C204,49.6,204,48.8,204,47.8z M180.6,40.3c0-2-0.9-4.5-2.2-5.5
				c-2-1.7-4.8-2.3-6.8,0.4c-0.8,1.1-1.6,2.2-2.9,3c-0.9,0.5-1.2,1.5-1.3,2.5c-0.1,0.7-0.3,1.3-0.7,1.8c-0.9,1.1-0.9,2.2-0.2,3.4
				c0.5,0.8,0.7,1.7,0.7,2.6c0,1.1-0.2,2.2,0,3.2c0.1,0.7,0.4,1.3,1.1,1.3c1.5,0.1,2.7,0.7,3.7,1.9c0.5,0.6,1.1,0.5,1.7,0.3
				c0.3-0.1,0.7-0.3,1-0.3c1.2,0.3,2-0.4,2.8-1c1-0.7,1.6-1.7,2.3-2.6c2.1-2.5,2.2-3.5,0.3-6.1c-0.6-0.8-0.7-1.5-0.2-2.3
				C180.4,42,180.7,41.1,180.6,40.3z M198,60.3c0.3-0.9,0.7-7.3,0.3-8.2c-0.5-1.2-0.3-2.2,0-3.4c0.5-1.6,0.3-1.9-1.4-2.2
				c-1.6-0.2-2.6-1-2.9-2.6c-0.9,0.3-1.1,0.7-0.4,1.4c0.4,0.4,0.9,0.8,0.9,1.3c0.3,2.4,1.9,4.4,2,6.7C196.8,55.7,197,58,198,60.3z
				 M182.5,46.2c0.2-0.5,1-1,0.4-1.6c-0.6-0.6-1-1.3-1.2-2.2C179.9,44.2,182.1,45,182.5,46.2z"/>
			<path class="st0" d="M7.7,19.2c0.7-1.3,1.5-2.3,3.2-2.2c0.2,0,0.5-0.3,0.7-0.5c1.5-1.1,3.1-2.1,5.1-1.3c0.6,0.2,1.1-0.1,1.5-0.4
				c0.8-0.6,1.6-1.2,2.4-1.8c2.2-1.7,4.6-1.7,7-0.5c1.4,0.7,2.7,1.4,4.1,2.2c0.4,0.3,0.9,0.2,1.3,0.2c1.3-0.1,2.3,0.3,2.8,1.6
				c0.2,0.4,0.4,0.5,0.8,0.5c2.5,0.1,3.9,1.8,4,4.3c0,0.7-0.4,1.5,0.1,2.2c0.4,0.6,0.7,0.9,1.1,0c1-1.8,3.6-2.5,4.7-1
				c1.2,1.8,3.3,3.4,2.1,6.2c-0.4,1-0.1,2.4-0.9,3.4c-0.3,0.4,0,0.5,0.3,0.7c1,0.6,1.3,1.5,1.2,2.6c-0.1,0.7,0.3,1.3,0.4,2
				c0.1,1.1-0.2,2.1-0.4,3.1c-0.2,0.8-0.3,1.5,0.5,2c0.7,0.4,0.9,1.2,1.1,2c-0.1-1.8,1.2-3.1,1.3-4.9c0.1-1.5,1.2-2.5,2.6-3
				c0.6-0.2,1-0.5,1.2-1.1c0.7-1.8,4.6-3.4,6.2-2.2c0.4,0.3,0.9,0.3,1.3,0.2c1.4-0.3,2.6-0.1,3.6,0.9c0.5,0.5,0.7,0.2,0.7-0.2
				c0.4-2.5,1.1-4.9,0.6-7.5C68,24.5,69,23.3,71.3,23c0.2,0,0.4-0.1,0.7-0.2c1.8-0.8,3.4,0,3.8,1.9c0.2,1,0.3,2-0.1,3
				c-0.7,1.7-0.5,3.4,0,5.1c0.2,0.6,0.1,1.3,0.2,2.1c2-1.3,4.1-2.2,5.7-3.9c1.1-1.2,2.4-1.9,3.8-2.6c0.5-0.3,1.1-0.4,1.7-0.4
				c1.2-0.1,2.1,0.3,2.5,1.5c0.4,1.1,0.1,2.1-0.8,2.8c-1.2,0.8-2.1,1.8-2.8,3c-0.6,0.9-1.5,1.4-2.4,1.9c-0.5,0.3-1,0.6-1.1,1.3
				c-0.5,2.5-2.3,3.7-4.5,4.6c-0.7,0.3-0.7,0.6-0.4,1.2c0.6,1.2,1.5,2.1,2.2,3.2c0.2,0.3,0.6,0.4,1,0.5c1.7,0.4,2.6,1.4,2.8,3.1
				c0.1,0.4,0,0.9,0.3,1.2c1.2,1.5,1.4,3.2,1.6,5c0.2,1.7,0.8,3.3,1.4,4.9c0.3,0.9,0.6,1.8,0.6,2.8c0,1.1-0.3,2-1.3,2.5
				c-0.3,0.2-0.6,0.4-0.8,0.7c-0.6,1-1.5,1.1-2.5,0.9c-1-0.2-1.7-1-1.7-2c0-3.1-2.1-5.5-3-8.3c-0.1-0.2-0.3-0.5-0.5-0.7
				c-1.1-0.9-1.5-2.1-1.8-3.4c-0.2-1-0.5-1.9-1.3-2.7c-0.5-0.5-0.8-0.5-0.9,0.3c-0.4,2.9-1.2,5.6-2.5,8.3c-0.5,1-1.1,1.6-2.2,1.6
				c-1.1,0-1.6-0.7-2.1-1.7c-1-1.8-0.5-3.4,0.1-5.2c0.3-0.8,0.5-1.6,0.5-2.9c-1.1,1.8-2.6,2.3-4.3,2.1c-0.4,0-0.6,0.2-0.9,0.4
				c-0.4,0.2-0.8,0.7-1.2,0.6c-1.4,0-1.7,0.9-2.1,1.9c-0.2,0.5-0.5,0.9-0.8,1.3c-0.6,0.8-1.4,1.2-2.4,1c-1.1-0.2-1.7-0.9-1.8-1.9
				c-0.1-1.3-1.1-2.2-1.4-3.4c0-0.1-0.2-0.3-0.3-0.3c-1-0.1-1.7-0.7-2.4-1.6c-0.6,0.9-0.7,1.7-0.7,2.6c0.1,1.7,0.3,3.4-1.4,4.6
				c-0.6,0.5,0.2,0.9,0.6,1.1c1.1,0.5,2.2,1.1,2.4,2.2c0.4,2,1.8,3.4,2.9,5c1.3,2,1.8,4.4,1.9,6.7c0.1,1-0.4,1.9-1.4,2.3
				c-1,0.4-2,0.3-2.6-0.6c-0.8-1-1.9-1.7-2.7-2.6c-1.5-1.6-3-3.4-3.5-5.8c-0.1-0.6-0.3-1-0.9-1.2c-0.1,0-0.1-0.1-0.2-0.1
				c-1.5-0.7-1.8-2.6-3-3.4c-1.3-0.9-2.6-1.6-3.2-3.2c-0.2-0.5-0.5-0.5-0.9-0.5c-1.8,0-2.7-0.6-3.3-2.3c-0.5-1.5-1.3-2-2.9-1.8
				c-1.4,0.2-2.4-0.4-3.3-2c-0.4-0.7-0.6-1.4-1.7-1.3c-1.1,0.1-1.7,0.7-1.3,1.8c0.5,1.6,0.5,3.1-0.3,4.6c-0.3,0.5,0,0.9,0.2,1.3
				c1.1,1.4,1.4,2.8,0.7,4.5c-0.2,0.5-0.1,1,0.2,1.5c0.8,1.4,0.7,2.8-0.4,4c-0.5,0.5-0.7,1.1-0.5,1.8c0,0,0,0.1,0,0.1
				c0.1,2.1-0.7,3.4-2.2,3.5c-1.6,0.2-3.1-1-3.3-2.9c-0.1-1.2-0.3-2.2-1.2-3.1c-0.4-0.3-0.5-1-0.4-1.4c0.6-2-0.6-3.6-1.4-5.2
				c-0.9-1.8-1.1-3.6-0.3-5.4c0.3-0.8,0-1.3-0.4-1.8c-1-1.2-1.3-2.5-0.6-4c0.5-1.2,0.1-2.4-0.3-3.6c-0.4-1.3-1.1-2.5-0.8-3.9
				c0.1-0.4-0.3-0.6-0.5-0.9c-0.7-1-1.1-2-1-3.2c0.1-1-0.4-1.9-0.6-2.9c-0.1-1-0.2-1.9,0.1-2.8c0.3-0.8,0.2-1.4-0.5-2
				c-2.1-1.8-2.6-4.1-1.8-6.7c0.2-0.8,0.1-1.4-0.5-2c-0.5-0.5-0.8-1.2-1.2-1.7C7.7,21,7.7,20.1,7.7,19.2z M39,21.9
				c0-2.7-1.1-3.6-3.3-3.1c-0.7,0.2-1,0-1-0.7c-0.2-1.5-0.5-1.7-2-1.6c-0.5,0-1,0.1-1.4-0.2c-1.3-0.9-2.8-1.5-4.2-2.2
				c-1.9-1-3.8-1-5.5,0.4c-0.7,0.6-1.4,1.1-2.1,1.6c-0.8,0.6-1.7,1.2-2.8,0.9c-2.1-0.7-3.4,0.3-4.7,1.6c-0.3,0.3-0.5,0.5-1,0.4
				c-1-0.3-1.5,0.1-1.6,1.2c-0.1,1,0.1,1.9,0.9,2.5c1.1,0.9,1.2,1.9,0.8,3.1c-0.7,2.1-0.3,3.9,1.4,5.5c1,0.9,1.3,1.9,0.9,3.3
				c-0.3,0.8-0.2,1.6-0.1,2.5c0.1,1,0.8,1.9,0.5,3c-0.2,1,0.2,1.9,0.9,2.6c0.4,0.4,0.8,0.8,0.6,1.3c-0.3,1.2,0.2,2.2,0.5,3.2
				c0.5,1.5,1.1,3,0.5,4.5c-0.5,1.3-0.4,2.4,0.5,3.5c0.5,0.7,1,1.6,0.5,2.6c-0.8,1.5-0.6,3,0.2,4.5c0.8,1.8,2.2,3.5,1.5,5.7
				c-0.1,0.3,0,0.8,0.3,0.9c1.4,0.7,1.3,1.9,1.2,3.1c0,0.2,0,0.5,0.1,0.7c0.3,0.6,0.6,1.4,1.5,1.2c0.8-0.2,0.8-0.9,0.7-1.6
				c-0.1-1.2-0.1-2.3,0.9-3.2c0.7-0.6,0.7-1.5,0.2-2.3c-0.5-0.7-0.6-1.6-0.3-2.3c0.6-1.4,0.3-2.6-0.6-3.8c-0.5-0.6-0.8-1.4-0.3-2
				c1.5-2.1-0.3-4.3,0.4-6.4c0.1-0.2-0.1-0.4-0.2-0.6c-0.2-0.4-0.4-0.8-0.4-1.2c-0.1-0.5-0.2-1,0.4-1.4c0.6-0.3,0.8,0.2,1.1,0.5
				c0.7,0.6,1.2,1.5,2.2,1.3c1.5-0.3,2.1,0.6,2.7,1.6c0.2,0.4,0.4,0.8,0.6,1.1c0.5,0.6,1.1,0.8,1.7,0.3c0.5-0.5,0.9-0.3,1.3,0.1
				c0.2,0.2,0.4,0.4,0.6,0.5c1.7,0.1,1.9,1.4,2.4,2.6c0.5,1.3,0.9,1.6,2.2,1c0.7-0.3,1.1-0.1,1.4,0.5c0.2,0.5,0.4,0.9,0.6,1.4
				c0.4,1,1.1,1.8,2.3,1.9c0.4,0,0.7,0.3,0.8,0.7c0.7,1.7,1.9,2.9,3.4,3.8c0.4,0.2,0.8,0.5,0.7,1.1c-0.1,1,0.5,1.8,0.9,2.7
				c1,2.4,3.6,3.3,4.8,5.4c0.2,0.3,0.6,0.4,0.9,0.2c0.3-0.1,0.4-0.4,0.4-0.8c-0.2-2.7-0.8-5.4-2.8-7.4c-0.8-0.8-1.4-1.6-1.4-2.8
				c0-0.6-0.3-1.1-0.7-1.4c-1.4-1-3-1.9-3.7-3.6c0-0.1-0.2-0.2-0.4-0.2c-0.9-0.3-1.3-1-1.5-1.9c-0.3-1.3-0.9-2.4-2.1-3.1
				c-0.5-0.3-0.7-0.8-1-1.3c-0.3-0.7-0.6-1.5-1.2-2.1c-0.6-0.7-1.3-1.4-2.3-1.1c-0.7,0.2-0.9-0.1-1.2-0.6c-0.3-0.5-0.5-1.3-1.3-1.1
				c-0.8,0.2-0.9-0.2-1.1-0.7c-0.5-0.9-0.8-2-2.2-2.1c-0.4,0-0.6-0.4-0.1-0.7c0.2-0.1,0.5-0.2,0.6-0.4c0.9-1.4,2.2-2.1,3.8-2.6
				c1.4-0.5,1.7-2.2,2-3.6c0.1-0.4,0.1-0.8,0.4-1c0.7-0.5,0.9-1.3,0.8-2.1c-0.1-0.7,0.1-1.2,0.5-1.7c0.9-0.9,1.2-2,1-3.2
				c-0.2-1.2-0.2-2.3,0.2-3.4c0.2-0.6,0.1-1.4-0.3-1.8C38.7,24,38.7,22.8,39,21.9z M70.2,41.8c0.1,0,0.2,0.1,0.3,0.1
				c-0.8,1.7-0.3,3.7-1.3,5.4c-0.2,0.3-0.3,0.8,0,1.1c0.5,0.6,0.4,1.2,0.3,1.9c-0.3,2.1-0.6,4.2-1.3,6.2c-0.3,1-0.6,2,0.1,3
				c0.3,0.4,0.2,1.1,0.9,1c0.6,0,0.8-0.6,1-1c1.2-2.6,2.1-5.4,2.3-8.3c0.1-1.3,1.2-1,1.7-1.6c0.1-0.1,0.3-0.3,0.4-0.3
				c0,0,0.2,0.1,0.2,0.2c0.6,1.4,2,2.2,2.3,3.8c0.3,1.7,0.8,3.3,2.2,4.4c0.3,0.3,0.4,0.9,0.6,1.4c0.2,0.5,0.3,1.1,0.7,1.6
				c1.2,1.7,1.7,3.7,1.9,5.7c0.1,0.6,0.3,1.2,1,1.2c0.7,0,0.9-0.5,1-1c0-0.2-0.1-0.6,0.4-0.5c1.2,0.3,1.3-0.6,1.2-1.4
				c-0.1-0.7-0.3-1.4-0.5-2c-0.6-1.7-1.2-3.3-1.5-5.1c-0.2-1.7-0.4-3.4-1.5-4.8c-0.3-0.4-0.3-0.9-0.4-1.4c-0.1-1.1-0.7-2-1.9-2.1
				c-0.9-0.1-1.4-0.7-1.9-1.4c-0.9-1.2-1.6-2.4-2.4-3.7c-0.8-1.3-0.6-1.9,0.8-2.4c1.4-0.6,3.1-1,3.7-2.6c0.7-1.9,1.8-3.4,3.6-4.2
				c0.1-0.1,0.3-0.2,0.4-0.3c1.1-1.4,2.1-2.9,3.6-3.8c0.3-0.2,0.4-0.7,0.2-1.1c-0.2-0.4-0.5-0.5-1-0.5c-0.6,0.1-1.1,0.3-1.6,0.6
				c-2,1.1-3.6,2.7-5.3,4.1c-0.4,0.3-0.6,0.8-1.2,0.8c-0.9,0-1.5,0.5-2.1,1c-0.6,0.6-1.3,1.1-2.1,1.3c-0.3,0.1-0.6,0.6-0.9,0.3
				c-0.4-0.3-0.2-0.8-0.2-1.2c0-0.3,0.2-0.5,0.3-0.7c0.3-1,0.3-1.9,0.1-2.9c-0.3-1.5-0.9-3-0.1-4.6c0.5-0.9,0.5-2,0.3-2.9
				c-0.2-1.2-1.1-1.5-2-0.7c-0.2,0.2-0.3,0.5-0.7,0.4c-1.5-0.3-1.9,0.3-1.7,1.8c0.3,1.7,0.4,3.4,0,5.1c-0.7,3.2-1.4,6.4-2.5,9.5
				c-0.1,0.4-0.2,0.7-0.3,1.1c-0.1,0.6,0.1,1.2,0.7,1.5c0.6,0.3,0.9-0.1,1.3-0.5C69.4,42.7,69.8,42.3,70.2,41.8z M43.7,54.3
				c0.3-0.5,0.2-0.9,0-1.3c-0.4-0.7-0.4-1.4-0.5-2.1c-0.2-1.4-0.3-2.8-0.1-4.2c0.1-0.4-0.2-0.7-0.4-0.9c-0.8-1-0.9-2.2-0.5-3.4
				c0.4-1,0.7-1.8,0-2.8c-0.3-0.3-0.2-0.9-0.1-1.4c0.3-0.9,0.2-1.7,0.1-2.6c-0.1-0.9,0.1-1.7,0.9-2.2c0.5-0.4,0.6-0.7,0-1
				c-0.3-0.2-0.5-0.4-0.7-0.6c-0.5-0.4-0.8-0.4-0.9,0.3c-0.4,1.6-1.7,2.8-1.5,4.6c0,0.3-0.2,0.7-0.5,0.9c-0.5,0.5-0.7,1.2-0.9,1.8
				C38,41.3,37.1,43,35,43.6c-1.7,0.5-1.9,1-0.8,2.4c0.2,0.3,0.4,0.5,0.7,0.5c0.7,0.2,1.3,0.5,1.6,1.2c0.1,0.3,0.3,0.4,0.6,0.4
				c2.2,0.2,3.4,1.7,4.2,3.5C41.8,52.9,42.7,53.6,43.7,54.3z M67.4,48.5c0.1-0.5,0.1-0.9,0.3-1.2c0.6-1.2,1-2.1-0.9-2.7
				c-1.1-0.4-1.4-1.8-1-3c0.3-1.1,0.7-2.2,1.2-3.6c-1.3,1.2-2.6,1.5-4,1.5c-0.2,0-0.5,0.1-0.6,0.3c-0.8,1.6-2.3,2.4-3.5,3.5
				c-0.4,0.4-0.6,0.6-0.2,1.2c0.5,0.7,0.6,1.5,0.3,2.3c-0.3,0.9,0.2,1.2,0.9,0.9c1.2-0.4,2.1-0.1,3.1,0.5c0.3,0.2,0.6,0.6,1,0.2
				C65.1,47.6,66.2,47.7,67.4,48.5z M63.4,52.9c1.6,0.1,2.7-0.6,3.1-2c0.1-0.5,0.1-1.1-0.4-1.5c-0.5-0.4-1-0.2-1.4,0.2
				c-0.7,0.6-1.3,0.6-2,0.1c-1.8-1.2-3.6-1-5.4,0.1c-0.3,0.2-0.7,0.5-1,0.1c-0.3-0.3-0.2-0.7,0-1.1c0.4-0.7,0.8-1.5,1.2-2.2
				c0.3-0.6,0.3-1.3-0.2-1.7c-1.2-0.9-0.6-1.6,0.1-2.2c1-0.9,2-1.8,3.1-2.6c0.3-0.3,0.7-0.6,0.5-1c-0.4-0.9,0.3-0.9,0.8-1
				c0.5-0.1,1.1,0,1.6-0.1c1.1-0.1,2.1-0.3,2.7-1.3c0.5-0.8,0.2-1.4-0.6-1.7c-0.7-0.3-1.4-0.1-2.1,0.1c-0.6,0.1-1,0.1-1.5-0.2
				c-1.4-1-4.2,0-4.6,1.7c-0.2,0.7-0.6,1.1-1.3,1.3c-1.5,0.4-2.5,1.3-2.4,3.1c0,0.6-0.3,1-0.5,1.5c-0.2,0.4-0.5,0.8-0.4,1.3
				c0.1,1-0.4,1.8-0.9,2.6c-0.3,0.4-0.6,0.9-0.8,1.4c-0.2,0.5-0.4,1.2,0.2,1.5c0.8,0.4,0.6,0.8,0.4,1.4c-0.5,1.6-0.1,2,1.6,2
				c0.7,0,1.1,0.2,0.9,1c-0.1,0.5,0,1,0.3,1.3c0.7,0.6,0.8,1.3,0.9,2.2c0,0.6,0.2,1.1,0.8,1.3c0.6,0.1,1-0.3,1.3-0.8
				c0.5-0.9,0.9-1.7,1.3-2.6c0.2-0.4,0.5-0.9,0.9-0.7c1,0.3,1.6-0.2,2.2-0.7C62.2,53,62.8,52.8,63.4,52.9z M45.1,55.7
				c0,1.6,0.7,2.9,1.4,2.7c1.3-0.2,1-1.4,1.1-2.3c0,0,0-0.1,0-0.1c-0.1-1.4,0.1-2.8,0.7-4.2c0.4-0.9,0.8-2,0.2-3
				c-0.6-1.1-0.4-1.9,0.3-2.9c0.8-1.1,0.7-1.7-0.4-2.6c-0.6-0.5-0.8-1.1-0.8-1.8c0-0.8,0.2-1.5,0.4-2.3c0.2-0.9,0.3-1.8-0.1-2.7
				c-0.2-0.4-0.2-0.8-0.1-1.2c0.1-0.5,0.1-0.9-0.4-1.2c-0.5-0.4-1-0.3-1.5,0c-0.3,0.1-0.5,0.4-0.9,0.4c-1.1-0.2-1.4,0.2-1.2,1.3
				c0.1,0.7,0.3,1.3,0,2c-0.3,0.8-0.4,1.5,0.5,2.1c0.4,0.2,0.2,0.8,0.1,1.2c-0.2,0.5-0.4,1.1-0.6,1.6c-0.2,0.6-0.4,1.4,0.1,1.9
				c0.9,1,0.8,2.1,0.7,3.2c-0.1,0.6,0,1.2,0,1.8C44.5,51.8,45.9,53.8,45.1,55.7z M45.1,23.2c-1.6,0-2.4,1.2-2,2.3
				c0.1,0.5,0.3,0.8,0.1,1.3c-1,2.5-1,2.5,0.9,4.4c0,0,0,0.1,0.1,0.1c1.1,1,2.6,0.6,2.8-0.9c0.2-1.1,0.3-2.2,0.5-3.3
				c0.2-0.6,0-1.4-0.7-1.5c-0.9-0.1-0.7-0.6-0.8-1.2C46,23.6,45.5,23.2,45.1,23.2z"/>
			<path class="st0" d="M102.8,39.7c0.7-1.4,1.7-1.9,2.9-1.6c1.4,0.3,2,1.4,2.4,2.6c0.1,0.2,0.1,0.4,0.1,0.6
				c0.1,0.3,0.1,0.6,0.5,0.6c0.2,0,0.3-0.3,0.4-0.5c0.3-1,0.8-1.9,1.2-2.7c0.6-1,1.4-1.6,2.5-1.4c1.1,0.2,1.7,1,2,2
				c0.4,1.2,0,2.4-0.2,3.7c-0.1,0.5-0.3,1-0.2,1.7c0.7-0.4,1.3-0.8,1.5-1.7c0.2-1.6,1.1-3.1,1.4-4.8c0.2-1.2,0.3-2.5,1-3.5
				c0.3-0.4,0.5-0.8,0.8-1.1c0.9-1,2.1-1.3,3.3-0.7c1.1,0.5,1.6,1.6,1.4,2.9c-0.1,0.6-0.4,1.2-0.5,1.8c-0.2,0.8-0.4,1.6,0.1,2.4
				c0.5,0.8,0.3,1.8,0,2.6c-0.9,2.3-0.9,4.7-0.9,7.1c0,0.6,0.1,1.1,0.4,1.6c0.5,1.1,0.8,2.2,1,3.3c0.3,1.6-0.4,3-1.7,3.6
				c-1.2,0.6-2.4,0.3-3.5-0.9c-0.2-0.3-0.4-0.6-0.8-0.5c-1.9,0.5-3.4-0.4-5-1.1c-0.3-0.1-0.6-0.2-0.9-0.1c-1.6,0.3-2.4-0.1-3.2-1.5
				c-0.1-0.3-0.2-0.8-0.6-0.8c-0.5,0-0.4,0.5-0.6,0.9c-0.1,0.2-0.3,0.5-0.4,0.5c-1.3,0.3-2,1.3-2.8,2.2c-1.1,1.2-2.9,0.7-3.7-0.9
				c-0.5-1-0.9-2-1.3-3C99,52.3,99,51.9,98.5,52c-0.3,0.1-0.5,0.4-0.4,0.7c0.3,1.6-0.8,2.6-1.4,3.8c-0.5,0.9-1.5,1.1-2.4,0.9
				c-1-0.3-1.7-1-1.7-2.1c0-0.8-0.2-1.6-0.5-2.4c-0.4-1.1-0.3-2.1,0.3-3.1c0.5-0.8,0.8-1.7,1.1-2.5c0.3-0.9,0.4-1.7,0.1-2.7
				c-0.5-1.8,1-5.2,2.6-6.2c0.4-0.2,0.6-0.5,0.7-1c0.1-0.9,0.5-1.6,1.1-2.3c0.7-0.8,1.5-1.3,2.5-1c1,0.2,1.6,0.9,1.9,2
				C102.7,37.2,102.4,38.3,102.8,39.7z M103.2,47.6c-0.9-2-1.3-4-1.6-6.1c-0.2-1.6-0.4-3.2-0.6-4.8c-0.1-0.5-0.2-0.9-0.8-1
				c-0.6-0.1-1,0.2-1.3,0.6c-0.4,0.5-0.6,1.1-0.7,1.7c-0.2,0.9-0.2,1.9-1.5,1.9c-0.2,0-0.5,0.3-0.6,0.5c-0.6,1.5-1.7,3-0.9,4.8
				c0.2,0.5,0.1,1-0.1,1.5c-0.3,1.3-0.8,2.6-1.4,3.8c-0.4,0.6-0.6,1.3-0.3,2c0.3,0.9,0.7,1.7,0.6,2.7c0,0.5,0.3,0.8,0.7,0.9
				c0.5,0.1,0.9-0.1,1-0.6c0.3-1,1.5-1.8,0.8-3.1c-0.1-0.3,0.1-0.6,0.3-0.8c0.4-0.5,0.6-1,0.7-1.6c0.1-0.7,0.2-1.7,0.9-1.7
				c0.6,0,1.1,0.8,1.3,1.6c0.1,0.2,0.1,0.4,0.2,0.7c0.4,1.4,0.9,2.7,1.5,4c0.3,0.5,0.6,1.1,1.3,1c0.7-0.2,1-0.7,1-1.4
				c0-0.5-0.1-0.9-0.1-1.4c-0.1-0.9-0.2-1.9-0.1-2.9c0.7,0.5,0.7,1.1,0.7,1.6c0,1.2,0.5,1.9,1.3,1.8c1-0.2,1.3-1,1.3-1.9
				c0-1.2,0.2-2.4-0.2-3.6c1.5,1.2,2.3,2.9,3.1,4.5c0.3,0.6,0.3,1.6,1.3,1.5c1.1-0.1,0.8-1.1,1-1.8c1.5,3.1,4.5,3.9,6.7,1.7
				c0.2,0.6,0.3,1.2,0.6,1.7c0.4,0.8,1.1,1.4,2,1c0.9-0.3,1.3-1.1,1.1-2.1c-0.2-1-0.5-2-0.9-3c-0.3-0.6-0.4-1.2-0.4-1.8
				c0-2.6-0.2-5.2,0.8-7.6c0.2-0.6,0.4-1.3,0.1-1.9c-0.6-1-0.4-1.9-0.2-2.9c0.2-0.7,0.4-1.3,0.6-2c0.1-0.5,0-1-0.5-1.3
				c-0.5-0.3-1.1-0.2-1.5,0.2c-0.3,0.3-0.5,0.7-0.7,1c-0.6,1-0.7,2.2-0.9,3.3c-0.3,1.6-1.1,3-1.4,4.6c-0.2,0.9-0.4,1.5-1.2,2.1
				c-0.8,0.6-1.6,1.3-2.3,2.1c-0.8,0.7-1,1.7-1.5,2.6c0.3-2.7,0.7-5.3,1.2-8c0.1-0.7,0.2-1.3,0.1-2c0-0.6-0.3-1.2-0.9-1.3
				c-0.6-0.1-0.8,0.4-1.1,0.9c-0.9,1.6-1.3,3.4-2.3,5.2c-0.2-1-0.6-1.4-1.5-1.5c-0.6,0-0.6-0.5-0.7-0.9c-0.2-0.7-0.2-1.5-0.7-2.2
				c-0.3-0.5-0.8-0.8-1.4-0.7c-0.6,0.2-0.7,0.7-0.7,1.2c0,1.2-0.1,2.5,0,3.7C104.3,45.5,104.1,46.6,103.2,47.6z"/>
			<path class="st1" d="M157,32.3c-0.4,1.7-1,3.3-0.6,5.1c0.4,1.6-0.2,3.2-1.3,4.4c-1.1,1.3-1.6,2.7-1.5,4.4
				c0.1,1.3-0.2,2.5-0.9,3.7c-0.6,1.1-0.8,2.3-0.8,3.6c0,0.5,0,1,0,1.5c0,0.7-0.2,1.3-1,1.4c-0.7,0.1-1.2-0.3-1.5-0.8
				c-0.5-0.9-0.7-2-0.7-3c0-0.6-0.2-0.9-0.8-1.1c-1.5-0.5-1.8-1.1-1.7-2.6c0.1-2.2-0.3-4.3-1.2-6.3c-0.5-1.1-0.6-2.3-0.8-3.5
				c-0.1-0.8-0.6-1.4-1-2.1c-1-1.5-2.8-2.8-2.3-5c0.1-0.6,0-1.3,0-2.2c-0.7,0.7-0.8,1.5-1,2.2c-0.6,1.8-0.8,3.5-0.3,5.3
				c0.3,0.8,0.1,1.7,0,2.6c-0.5,2.9-1,5.9-1.4,8.8c-0.1,0.7,0.1,1.4,0.2,2.1c0.1,1-0.2,1.9-1,2.6c-1.3,1.2-1.9,2.8-1.4,4.6
				c0.4,1.7,0.5,3.3-0.4,5c-0.5,0.9-0.5,2-0.8,3c-0.2,0.8-0.4,1.9-1.4,1.8c-1.1-0.1-1-1.2-1.1-2.1c0-1,0.1-2.1,0-3.1
				c-0.2-2.1-0.2-4.3,0-6.4c0.1-0.9-0.4-1.7-0.6-2.6c-0.6-1.9-0.7-3.9,0.7-5.5c2.1-2.4,2.3-5.1,1.7-8c-0.4-2.1-0.2-4.1,0.5-6.2
				c0.9-2.7,1.8-5.4,2-8.3c0.1-1,0.4-2,1-2.9c0.2-0.4,0.5-0.9,1.1-0.7c0.6,0.1,0.5,0.7,0.5,1.3c1.1-0.7,1.4,0,1.6,0.9
				c0.3-2.3,2.4-3.8,2.6-6.2c0.1-1.2,1.2-2.1,1.9-3c0.3-0.4,0.7-0.5,1.1-0.2c0.5,0.3,0.8,0.8,0.7,1.3c-0.3,1.1-0.6,2.2-1,3.2
				c-0.3,0.8-0.5,1.6-0.6,2.5c-0.2,1.1-0.3,2.2,0.8,3c0.6,0.4,0.4,1.1,0.4,1.8c0,1.3-0.4,2.6,0.6,3.8c0.2,0.2,0.1,0.6,0.1,0.9
				c0,0.9-0.1,1.7,0.7,2.4c0.5,0.4,0.3,1.1,0.3,1.8c-0.2,3,0,6,1,8.8c0.6-1.4,0.7-2.8,0.7-4.2c0-1.9,0.1-3.8,0.7-5.7
				c0.4-1.2,0.8-2.2,1.6-3.1c1.5-1.7,1.6-3.9,2.1-6c0.5-2.2,1-4.3,2.5-6c1-1.1,1.4-2.5,1.5-4.1c0-0.9,0.3-1.6,0.9-2.3
				c0.8-0.9,1.4-1.8,2-2.9c0.3-0.7,0.8-1.4,1.7-1.2c0.7,0.2,0.9,1.2,0.5,2.3c-0.6,1.5-1.3,3-1.9,4.6c-0.9,2.6-1.2,5.3-0.5,8.1
				c0.4,1.4,0.8,2.8,0.8,4.3c0,2.1,0.2,4.1,0.9,6.1c0.4,1.2,0.4,2.6,0.3,3.9c-0.1,0.5,0,0.9,0.2,1.2c1,1,0.7,2.1,0.5,3.3
				c-0.1,0.5-0.2,1.1,0,1.6c0.5,1.6,0.2,3.1-0.5,4.5c-0.6,1.1-0.6,2.1,0,3.2c0.6,1,0.8,2.1,0.5,3.2c-0.2,0.8,0,1.6,0.6,2.3
				c0.8,0.9,0.9,1.9,0.6,3c-0.4,1.4-0.3,2.7,0.6,3.8c1.1,1.4,0.7,3.2,1.1,4.8c0.1,0.3-0.1,0.6-0.5,0.7c-0.4,0.1-0.7,0-0.9-0.3
				c-0.2-0.3-0.3-0.6-0.8-0.3c-0.6,0.3-0.9-0.2-1-0.8c0-0.4,0.1-0.9,0.1-1.4c0.1-0.6,0-1.1-0.7-1.4c-1.3-0.6-1.8-1.7-1.6-3.1
				c0-0.4,0-0.7-0.4-1c-0.9-0.4-1-1.2-1-2.1c0-0.3,0.1-0.6,0.2-0.9c0.4-1.4,0.3-2.6-0.7-3.9c-1-1.2-1.4-2.8-1.4-4.4
				c0-1.7,0-3.4-0.6-5.1c-0.8-2.2,0.2-4.4,0.9-6.5c0.5-1.2,0.3-2.2-0.7-3C157,34.5,157.1,33.4,157,32.3z M138.3,23.1
				c-0.5,0.7-0.8,1.5-0.8,2.3c-0.1,2.9-1,5.7-2,8.4c-0.7,2.1-0.8,4.1-0.5,6.3c0.4,2.6,0.6,5.3-1.3,7.5c-1.6,1.9-1.8,4-1,6.3
				c0.6,1.5,0.6,3,0.3,4.6c-0.1,0.5-0.4,1-0.2,1.5c0.6,1.3,0.3,2.7,0.3,4c0,0.7,0,1.4,0,2.1c0,0.4,0,0.9,0.4,1
				c0.5,0.1,0.6-0.6,0.7-0.9c0.3-1.1,0.4-2.3,0.9-3.3c0.7-1.5,0.8-3.1,0.3-4.6c-0.6-2.2,0.2-3.9,1.7-5.3c0.4-0.4,0.8-0.9,0.7-1.5
				c-0.5-3,0.6-5.9,0.9-8.8c0.2-2.1,0.9-4.1,0.3-6.3c-0.6-2.3,0.5-4.5,1.2-6.6c0.1-0.4,0.4-0.7,0.9-0.6c0.5,0.1,0.6,0.6,0.6,1
				c0,0.6,0.1,1.2,0,1.7c-0.5,2.1,1,3.4,2,4.7c0.6,0.8,1.2,1.6,1.3,2.6c0.1,1.3,0.5,2.6,1,3.9c0.7,1.8,1.2,3.7,0.9,5.7
				c-0.1,1,0,1.9,1.3,2.1c0.8,0.2,1.2,0.8,1.2,1.6c0,0.8,0.1,1.5,0.4,2.3c0.2,0.5,0.4,1.1,1.1,1c0.7-0.1,0.5-0.8,0.4-1.3
				c-0.1-1.6,0-3.2,0.8-4.6c0.7-1.2,0.9-2.4,0.9-3.8c-0.1-1.6,0.3-2.9,1.4-4.2c1.1-1.2,1.7-2.6,1.4-4.3c-0.4-2,0.1-3.9,0.6-5.8
				c0.1-0.5,0.3-1.4,1-1.2c0.6,0.1,0.3,0.9,0.3,1.4c0.1,0.9-0.2,2,0.6,2.7c1.4,1.2,1.6,2.4,0.9,4.1c-0.8,2.1-1.5,4.4-0.6,6.6
				c0.4,1,0.5,2,0.4,3.1c-0.1,1.6-0.2,3.4,0.8,4.7c1.4,1.9,1.8,3.7,1.1,5.9c-0.2,0.5-0.1,1.2,0.6,1.5c0.8,0.3,0.8,0.9,0.8,1.6
				c0,0.7-0.2,1.6,0.6,2c1.6,0.8,2,2,1.6,3.6c0,0.1,0,0.2,0.1,0.4c1.1-1.6,1.2,0.2,1.8,0.6c-0.5-1.6-0.1-3.3-1.1-4.6
				c-1-1.2-1-2.6-0.7-4.1c0.3-1,0.2-2-0.6-2.8c-0.6-0.7-0.8-1.5-0.6-2.4c0.2-1.1,0.1-2-0.4-3c-0.5-0.9-0.9-1.9-0.4-2.9
				c0.9-1.8,1.3-3.6,0.8-5.6c-0.1-0.4,0.1-0.8,0.2-1.2c0-0.7,0.6-1.4,0.2-1.9c-0.9-1.1-0.8-2.3-0.8-3.5c-0.1-3.1-1.5-6-1.3-9.2
				c0.1-0.9-0.1-1.8-0.4-2.6c-1.3-4.1-0.8-8,1-11.8c0.4-0.9,0.8-1.8,1.1-2.7c0.1-0.4,0.3-1-0.2-1.3c-0.5-0.2-0.8,0.4-0.9,0.7
				c-0.5,1.3-1.4,2.3-2.3,3.3c-0.4,0.5-0.5,1-0.5,1.6c-0.1,1.6-0.4,3.1-1.5,4.3c-1.7,2-2.1,4.4-2.7,6.8c-0.4,1.7-0.5,3.7-1.8,5.1
				c-1.1,1.2-1.6,2.6-2,4.1c-0.4,1.6-0.4,3.2-0.4,4.8c-0.1,1.7-0.1,3.5-0.8,5.1c-0.2,0.4-0.3,0.8-0.8,0.7c-0.5-0.1-0.5-0.5-0.5-0.9
				c0-0.3,0.1-0.7,0-1c-0.9-2.8-1.1-5.6-0.8-8.5c0-0.5,0.2-1.2-0.2-1.5c-1-0.6-0.8-1.5-0.7-2.3c0.1-0.4,0-0.8-0.2-1.1
				c-0.9-1.1-0.7-2.4-0.6-3.7c0.1-0.8,0-1.6-0.7-2.2c-0.5-0.4-0.5-0.9-0.5-1.5c0-1.7,0.5-3.2,1-4.7c0.3-0.8,0.6-1.6,0.7-2.4
				c0-0.2,0-0.5-0.3-0.6c-0.3-0.1-0.4,0.1-0.6,0.3c-0.9,1.2-1.8,2.3-1.9,3.9c0,0.7-0.3,1.4-0.8,1.9c-0.7,0.7-1.1,1.6-1.3,2.5
				c-0.1,0.5-0.2,1.2-0.9,1.2c-0.7,0-0.5-0.7-0.8-1.1c0-0.1-0.1-0.1-0.2-0.2c-0.1,0.1-0.1,0.2-0.2,0.3c-0.3,0.3-0.4,0.9-0.9,0.8
				c-0.5-0.2-0.4-0.8-0.3-1.2c0-0.1,0-0.2,0-0.2c0.1-0.2,0.2-0.3,0-0.5C138.4,22.9,138.4,23,138.3,23.1z"/>
			<path class="st1" d="M222.9,45.9c1.3-1.7,3.5-1.6,5.2-2.4c1.9-0.9,3.7-1.9,5.2-3.3c1.3-1.1,2.9-1.5,4.3-2.3c0.4-0.2,0.8,0,1,0.3
				c0.3,0.4,0.1,0.8-0.2,1.1c-1,1-2,2.1-3.2,2.9c-2,1.4-3.8,3-6,4.1c-0.9,0.4-1.5,1-1.9,1.9c-0.6,1.5-1.9,2.3-3.4,2.8
				c-1.7,0.6-3,1.5-3.8,3.2c-0.3,0.6-0.8,1-1.4,1.4c-1,0.7-2,1.4-3,2.1c-1,0.7-1.8,1.4-2,2.7c-0.1,0.4-0.4,0.8-0.6,1.1
				c-0.7,0.8-1.6,1.5-2,2.5c-1,2.5-3.3,4-5,6c-1,1.1-2.2,2-3.8,2.1c-2.4,0.1-3.8,1.8-5.4,3.2c-0.1,0.1-0.1,0.1-0.2,0.2
				c-0.6,0.6-1.3,1.4-2.2,0.6c-0.9-0.8-0.2-1.7,0.4-2.3c1.5-1.5,3-3,5-4c1-0.5,1.9-1,2.3-2.1c0.1-0.3,0.4-0.6,0.6-0.8
				c1.7-1.2,2.8-3,4.4-4.3c0.7-0.5,1.1-1.2,0.4-2c-0.5-0.6-0.1-1.2,0.3-1.7c0.7-0.9,1.6-1.6,2.6-2.1c0.4-0.2,0.7-0.3,0.3-0.9
				c-0.5-0.7,0.1-1.2,0.8-1.5c1-0.4,2.1-0.7,3.2-1.1c0.6-0.2,0.9-0.5,0.7-1.1c-0.3-0.9,0-1.8,0.3-2.7c0.4-1.2,0.8-2.3,1-3.5
				c0.1-0.5,0.1-0.6-0.4-0.8c-0.6-0.2-0.9-0.8-0.9-1.5c0-1.3-0.2-2.6-0.8-3.8c-0.3-0.6-0.5-1.2-0.5-1.8c0-2.5-0.2-5.1-0.5-7.6
				c-0.1-0.6,0-1.2,0.6-1.6c0.3-0.2,0.2-0.5,0.2-0.8c0-1.1,0.1-2.2-0.2-3.3c-0.1-0.5-0.3-1.3,0.4-1.5c0.8-0.3,0.9,0.5,1.2,1
				c1.5,2.6,1.9,5.7,3,8.5c0.2,0.4,0.2,0.9,0.5,1.1c1.6,1.3,1.4,3,1.3,4.7c-0.1,1.9,0.4,3.5,1.4,4.9C223,44,223.2,44.9,222.9,45.9z
				 M215.2,23.9c0.2,1.4,0.2,2.9,0.1,4.3c0,0.4,0,0.9-0.4,1c-0.6,0.3-0.6,0.7-0.5,1.2c0.3,2.6,0.5,5.1,0.5,7.7
				c0,0.4,0.2,0.8,0.3,1.1c0.6,1.3,0.9,2.6,0.9,4c0,0.6,0.1,1.1,0.9,1.2c0.5,0.1,0.6,0.5,0.5,1c-0.2,1.3-0.6,2.6-1.1,3.9
				c-0.4,0.9-0.6,1.8-0.3,2.8c0.2,0.8-0.2,1.3-1,1.6c-1.1,0.3-2.1,0.7-3.2,1.1c-0.4,0.2-1,0.3-0.2,0.9c0.8,0.5,0.1,0.9-0.3,1.1
				c-1,0.6-2,1.3-2.9,2.1c-0.5,0.5-0.6,1-0.2,1.6c0.3,0.4,0.5,0.9,0.1,1.4c-1.3,1.8-3.2,3-4.6,4.8c-0.4,0.5-1.1,0.8-1.4,1.5
				c-0.4,0.8-1,1.4-1.8,1.7c-2,0.9-3.5,2.4-5.1,3.8c-0.5,0.5-1.3,1.1-0.8,1.7c0.5,0.5,1.1-0.4,1.5-0.8c1.6-1.4,2.9-3,5.2-3.2
				c0.7-0.1,1.5-0.2,2-0.5c2.3-1.5,4-3.5,5.6-5.6c1-1.2,1.6-2.6,2.7-3.8c0.4-0.4,0.9-0.9,1-1.5c0.3-1.3,1.1-2.1,2.1-2.8
				c1.1-0.8,2.2-1.6,3.3-2.3c0.5-0.3,0.9-0.7,1.2-1.3c0.8-1.6,2.1-2.6,3.7-3.1c1.5-0.5,2.8-1.2,3.4-2.7c0.4-0.9,1-1.4,1.8-1.9
				c3.2-1.8,6.3-4,8.9-6.6c0.2-0.2,0.5-0.4,0.6-1c-1.3,0.6-2.7,1-3.6,1.8c-2.1,1.7-4.3,3.2-6.9,4.2c-1.7,0.7-3.8,0.9-4.8,2.8
				c-0.1,0.3-0.6,0.6-1,0.3c-0.3-0.3,0-0.6,0.1-0.9c0.4-1,0.8-1.9,0.1-2.9c-1.2-1.7-1.8-3.5-1.6-5.6c0.1-1.1,0.3-2.4-0.6-3.3
				c-1.4-1.5-1.8-3.3-2.3-5.1C217,27.6,216.3,25.7,215.2,23.9z"/>
			<path class="st1" d="M186.7,35c0.5-1.2,1.4-1.9,2-2.8c0.6-0.7,1.3-1,2.2-0.5c0.6,0.3,1.1,0.4,1.8,0.3c1.8-0.2,2.5,0.6,2.2,2.4
				c-0.2,0.9,0.5,1.5,1,2.1c1.7,2.4,1,4.7-1.9,5.7c-1.2,0.4-2,1.3-3.1,1.8c-0.6,0.3-0.3,0.7,0.2,0.9c0.8,0.4,1.3,1.1,1.9,1.8
				c0.4,0.5,0.7,1,0.6,1.6c-0.2,1.2,0.3,2.2,0.9,3.1c0.9,1.3,0.8,2.7,0.7,4.1c-0.1,1.2,0.1,2.2,0.7,3.2c0.3,0.6,0.6,1.3,0.5,2
				c-0.1,1-1.1,1.5-1.9,0.9c-0.3-0.2-0.7-0.6-0.8-1c-0.4-1.7-1.3-3.3-1.2-5.1c0-0.9-0.3-1.6-0.9-2.3c-1.2-1.3-1.9-3-3.3-4.2
				c-0.4-0.3-0.3-0.9-0.4-1.4c0-0.7,0.1-1.4-0.1-2.1c-0.5,0.5-0.4,1.1-0.3,1.6c0.2,1.7,0.3,3.5-0.6,5.1c-0.5,0.9-0.2,1.8-0.4,2.7
				c-0.2,0.8-0.4,1.6-1.4,1.5c-1-0.1-1.1-0.9-1-1.7c0.2-1.8,0.2-3.6,0.1-5.3c-0.1-1.7-0.5-3.2,0.2-4.8c0.1-0.3,0-0.7-0.4-0.9
				c-1.1-0.6-1.3-1.6-1-2.7c0.8-3,0.3-6.1,0.7-9.1c0-0.2,0-0.3,0-0.5c0-0.7,0.3-1.2,1.1-1.3c0.7-0.1,1,0.3,1.3,0.9
				c0.2,0.6,0.2,1.2,0.2,1.8C186.3,33.7,186.3,34.3,186.7,35z M194.7,55.4c0.3-1.7-0.2-3.2-1.2-4.6c-0.3-0.3-0.5-0.7-0.4-1.2
				c0.3-2-0.8-3.2-2.4-4.3c-0.8-0.5-0.9-1.5-0.1-1.9c1.3-0.6,2.3-1.6,3.7-2c1.8-0.5,2.5-2.6,1.5-4c-0.5-0.7-0.8-1.4-1.3-2
				c-0.3-0.4-0.3-0.7-0.2-1.2c0.4-1.1,0-1.7-1.2-1.6c-0.9,0-1.7,0.1-2.5-0.4c-0.6-0.4-1-0.1-1.4,0.4c-0.8,0.9-1.7,1.8-2.1,3
				c-0.1,0.3-0.3,0.8-0.8,0.7c-0.5-0.1-0.3-0.6-0.4-0.9c-0.3-1.2-0.4-2.4-0.4-3.7c0-0.4-0.1-0.9-0.7-0.8c-0.6,0.1-0.4,0.6-0.4,0.9
				c0.1,1.1-0.2,2.2-0.2,3.2c-0.1,2,0.3,4-0.4,6c-0.2,0.6-0.2,1.4,0.5,2c1,0.8,1.2,1.6,0.6,2.8c-0.4,0.8-0.6,1.6-0.1,2.4
				c0.3,0.6,0.4,1.2,0.2,1.9c-0.6,1.7,0.2,3.4-0.1,5.2c0,0.2,0.1,0.5,0.4,0.5c0.2,0,0.5-0.1,0.6-0.3c0.2-0.5,0.3-1,0.3-1.5
				c0-0.6-0.1-1.2,0.2-1.7c1-1.7,0.8-3.6,0.6-5.4c-0.1-0.6,0-1.2,0.3-1.7c0.2-0.3,0.4-0.5,0.7-0.5c0.4,0,0.6,0.3,0.7,0.7
				c0.1,0.7,0.1,1.4,0.1,2.1c0,0.6,0,1.1,0.5,1.5c1.6,1.3,2.3,3.2,3.7,4.6c0.3,0.3,0.5,0.8,0.4,1.2c-0.2,1.8,0.8,3.4,1,5.1
				c0,0.3,0.2,0.6,0.4,0.8c0.2,0.3,0.5,0.7,0.9,0.6c0.5-0.1,0.4-0.6,0.3-1c0-0.4-0.2-0.8-0.4-1.2C194.8,58,194.5,56.8,194.7,55.4z"
				/>
			<path class="st1" d="M204,47.8c0.1,1,0.1,1.9-0.3,2.6c-0.1,0.1-0.1,0.2-0.1,0.3c0.4,3.3-1.3,6.3-1.2,9.6c0.1,1.6-0.9,3-1.2,4.6
				c-0.1,0.3-0.3,0.6-0.6,0.6c-0.4,0-0.6-0.3-0.8-0.6c-0.6-1.2-0.5-2.5-0.3-3.7c0.2-1.2,0.6-2.4,0.6-3.6c0-0.8-0.3-1.6-0.3-2.4
				c-0.1-1.6,0.1-3.2-0.1-4.8c-0.1-1,0.2-2.3,0.8-3.4c0.2-0.4,0.3-0.6-0.3-0.8c-1.2-0.3-2.1-1.2-3.5-1.2c-0.5,0-1-0.5-0.9-1.1
				c0.1-0.5,0.5-0.9,1.1-0.9c1.1,0,2-1,3.2-1c0.4,0,0.4-0.6,0.4-1c0.2-2.2,0.7-4.4,1.3-6.6c0-0.1,0.1-0.3,0.1-0.4
				c0-2.4,1.4-4.3,2.3-6.3c0.3-0.6,0.7-1,1.3-1.3c0.5-0.2,0.9-0.1,1.3,0.2c0.4,0.3,0.5,0.8,0.3,1.3c-0.3,1-0.9,1.9-1.4,2.8
				c-0.4,0.6-0.5,1.1,0.1,1.6c0.8,0.7,0.6,1.7,0.3,2.5c-0.8,2.3-0.9,4.8-2,7.1c-0.3,0.7,0.1,0.7,0.6,0.6c1-0.2,2-0.5,2.7,0.7
				c0.1,0.1,0.4,0.1,0.7,0c0.9-0.1,1.7,0,2.3,0.7c0.5,0.5,1.1,0.4,1.7,0.6c1.6,0.6,1.8,1.3,0.6,2.5c-0.1,0.1-0.1,0.1-0.2,0.1
				c-0.9,1.4-1.5,1.6-2.8,0.7c-0.7-0.4-1.3-0.5-2.1-0.4c-0.7,0.1-1.5,0-2.2-0.5c-0.3-0.2-0.6-0.7-1-0.5c-0.5,0.2-0.2,0.8-0.2,1.2
				C204,47.6,204,47.8,204,47.8z M200.5,64.8c0.7-2.2,1.3-4.3,1.4-6.4c0.1-1.3-0.1-2.8,0.6-4c0.5-0.9,0.6-1.8,0.4-2.8
				c-0.1-0.3-0.2-0.7-0.1-1c0.5-1.2,0.5-2.4,0.4-3.6c-0.1-0.5-0.1-1.1,0.5-1.4c0.6-0.3,1.1,0,1.5,0.4c0.6,0.6,1.3,0.8,2,0.6
				c1-0.3,1.7,0.1,2.5,0.5c0.5,0.2,1.5,1.3,1.6-0.4c0-0.1,0.3-0.2,0.4-0.3c0.3-0.2,0.8-0.2,0.7-0.7c-0.1-0.4-0.5-0.5-0.9-0.7
				c-0.6-0.3-1.4-0.1-1.9-0.7c-0.7-0.7-1.5-0.9-2.4-0.4c-0.5,0.3-0.9,0.4-0.8-0.4c0-0.5-0.3-0.6-0.7-0.6c-0.5,0-0.9,0.1-1.4,0.1
				c-1,0.1-1.5-0.4-1.1-1.3c1-2.3,1.1-4.8,2-7.1c0.3-0.8,0.4-1.6-0.4-2.2c-0.6-0.5-0.6-1.1-0.2-1.8c0.5-0.8,0.9-1.6,1.3-2.4
				c0.2-0.4,0.5-0.9-0.1-1.2c-0.5-0.2-1,0.1-1.2,0.5c-0.8,1.8-2.2,3.3-2.3,5.4c-0.1,0.9-0.6,1.7-0.6,2.6c-0.2,1.9-1.1,3.7-0.9,5.6
				c0.1,0.7-0.2,1.6-0.9,1.6c-1.2,0-2,0.9-3.2,0.9c-0.2,0-0.5,0.1-0.5,0.4c0,0.3,0.2,0.4,0.5,0.5c0.5,0.2,1.1,0.1,1.7,0.3
				c0.7,0.4,1.3,1,2.2,0.7c0.3-0.1,0.4,0.2,0.5,0.5c0.1,0.5-0.1,0.9-0.3,1.3c-0.5,1.1-0.9,2.4-0.7,3.4c0.2,1.3,0.5,2.6,0.1,3.9
				c0,0.1,0,0.2,0,0.3c0.7,2.1,0.3,4.1-0.1,6.1C199.9,62.2,199.8,63.5,200.5,64.8z"/>
			<path class="st1" d="M180.6,40.3c0.1,0.9-0.2,1.8-0.7,2.6c-0.4,0.9-0.3,1.6,0.2,2.3c1.9,2.6,1.8,3.6-0.3,6.1
				c-0.8,0.9-1.4,1.9-2.3,2.6c-0.9,0.6-1.7,1.3-2.8,1c-0.3-0.1-0.6,0.2-1,0.3c-0.6,0.2-1.2,0.3-1.7-0.3c-1-1.1-2.2-1.8-3.7-1.9
				c-0.7,0-1-0.6-1.1-1.3c-0.2-1.1,0-2.2,0-3.2c0-1-0.1-1.8-0.7-2.6c-0.8-1.2-0.7-2.3,0.2-3.4c0.4-0.5,0.7-1.1,0.7-1.8
				c0.1-1,0.4-2,1.3-2.5c1.2-0.8,2-1.8,2.9-3c2-2.6,4.8-2,6.8-0.4C179.7,35.8,180.6,38.2,180.6,40.3z M167.9,49.1c0,0.7-0.1,1.4,0,2
				c0.1,0.9,0.3,1.2,1.3,1.3c1.1,0.1,2.3,0.7,3,1.5c0.6,0.7,1,0.8,1.8,0.5c0.2-0.1,0.5-0.3,0.8-0.2c1.4,0.4,2.2-0.5,3-1.3
				c0.7-0.7,1.2-1.5,1.9-2.2c1.7-2,1.8-2.9,0.2-5c-0.9-1.1-1-2.1-0.3-3.3c0.6-1.1,0.7-2.3,0.5-3.5c-0.1-0.6-0.4-1.1-0.6-1.7
				c-0.4-1.9-1.9-2.6-3.5-3.1c-1.5-0.5-2.7,0.2-3.6,1.4c-0.9,1.1-1.6,2.3-2.9,3c-0.7,0.4-0.9,1.1-1,1.9c-0.1,0.9-0.4,1.8-1,2.5
				c-0.6,0.7-0.6,1.6-0.1,2.4C167.8,46.5,168,47.8,167.9,49.1z"/>
			<path class="st2" d="M39,21.9c-0.2,1-0.3,2.2,0.9,3.2c0.5,0.4,0.5,1.1,0.3,1.8c-0.4,1.1-0.4,2.3-0.2,3.4c0.2,1.2-0.2,2.3-1,3.2
				c-0.5,0.5-0.6,1-0.5,1.7c0.1,0.8-0.1,1.6-0.8,2.1c-0.4,0.3-0.4,0.6-0.4,1c-0.3,1.4-0.6,3.1-2,3.6c-1.6,0.6-2.9,1.2-3.8,2.6
				c-0.1,0.2-0.4,0.3-0.6,0.4c-0.5,0.3-0.4,0.6,0.1,0.7c1.4,0.1,1.7,1.2,2.2,2.1c0.3,0.5,0.4,0.9,1.1,0.7c0.8-0.2,1,0.5,1.3,1.1
				c0.3,0.6,0.4,0.8,1.2,0.6c1-0.3,1.7,0.4,2.3,1.1c0.6,0.6,0.9,1.4,1.2,2.1c0.2,0.5,0.4,1,1,1.3c1.2,0.7,1.8,1.8,2.1,3.1
				c0.2,0.9,0.6,1.6,1.5,1.9c0.1,0.1,0.3,0.1,0.4,0.2c0.7,1.7,2.3,2.6,3.7,3.6c0.4,0.3,0.7,0.8,0.7,1.4c0,1.2,0.6,2,1.4,2.8
				c2,2,2.6,4.7,2.8,7.4c0,0.3-0.1,0.6-0.4,0.8c-0.4,0.2-0.7,0.1-0.9-0.2c-1.2-2.1-3.8-3-4.8-5.4c-0.4-0.9-1-1.7-0.9-2.7
				c0.1-0.6-0.3-0.9-0.7-1.1c-1.6-0.9-2.8-2.1-3.4-3.8c-0.2-0.4-0.4-0.6-0.8-0.7c-1.2-0.1-1.8-0.9-2.3-1.9c-0.2-0.5-0.4-0.9-0.6-1.4
				c-0.3-0.7-0.7-0.8-1.4-0.5c-1.3,0.5-1.7,0.3-2.2-1c-0.4-1.1-0.7-2.5-2.4-2.6c-0.2,0-0.5-0.3-0.6-0.5c-0.4-0.4-0.8-0.6-1.3-0.1
				c-0.6,0.6-1.2,0.3-1.7-0.3c-0.3-0.3-0.4-0.7-0.6-1.1c-0.6-1-1.2-2-2.7-1.6c-1,0.2-1.5-0.7-2.2-1.3c-0.3-0.3-0.6-0.8-1.1-0.5
				c-0.5,0.3-0.4,0.9-0.4,1.4c0.1,0.4,0.3,0.8,0.4,1.2c0.1,0.2,0.3,0.5,0.2,0.6c-0.7,2.1,1.2,4.3-0.4,6.4c-0.5,0.6-0.2,1.4,0.3,2
				c0.9,1.1,1.2,2.3,0.6,3.8c-0.3,0.7-0.2,1.6,0.3,2.3c0.6,0.8,0.5,1.7-0.2,2.3c-1,0.9-1,2-0.9,3.2c0.1,0.7,0.1,1.4-0.7,1.6
				c-0.9,0.2-1.2-0.5-1.5-1.2c-0.1-0.2-0.2-0.4-0.1-0.7c0-1.2,0.1-2.4-1.2-3.1c-0.3-0.1-0.4-0.6-0.3-0.9c0.7-2.2-0.6-4-1.5-5.7
				c-0.7-1.6-1-3-0.2-4.5c0.5-1,0.1-1.9-0.5-2.6c-0.9-1.1-1-2.2-0.5-3.5c0.6-1.5-0.1-3-0.5-4.5c-0.3-1.1-0.8-2.1-0.5-3.2
				c0.1-0.5-0.3-0.9-0.6-1.3c-0.7-0.7-1.1-1.6-0.9-2.6c0.2-1.1-0.4-2-0.5-3c-0.1-0.9-0.2-1.7,0.1-2.5c0.4-1.3,0.1-2.4-0.9-3.3
				c-1.7-1.5-2.1-3.3-1.4-5.5c0.4-1.2,0.3-2.3-0.8-3.1c-0.8-0.6-1-1.5-0.9-2.5c0.1-1.1,0.6-1.4,1.6-1.2c0.5,0.1,0.7-0.1,1-0.4
				c1.3-1.3,2.6-2.3,4.7-1.6c1,0.4,2-0.3,2.8-0.9c0.7-0.5,1.4-1.1,2.1-1.6C23.2,13,25.1,13,27,14c1.4,0.7,2.9,1.3,4.2,2.2
				c0.4,0.3,0.9,0.3,1.4,0.2c1.5-0.1,1.8,0.1,2,1.6c0.1,0.8,0.4,0.9,1,0.7C37.8,18.2,39,19.2,39,21.9z M53.1,74.9
				C53,72,52.2,69.4,50,67.3c-0.6-0.6-1.1-1.3-1-2.2c0-0.7-0.3-1.4-0.9-1.7c-1.4-0.7-2.6-1.6-3.2-3.1c-0.1-0.2-0.3-0.3-0.5-0.4
				c-1-0.4-1.4-1.1-1.7-2.1c-0.2-1-0.5-2-1.5-2.5c-0.9-0.5-1.4-1.3-1.8-2.3c-0.2-0.5-0.5-1-0.8-1.4c-0.4-0.6-1-1.2-1.7-0.9
				c-1.2,0.5-1.6-0.2-2-1.1c-0.1-0.3-0.4-0.8-0.7-0.6c-1.2,0.9-1.2-0.3-1.5-0.8c-0.6-0.9-0.8-2.1-2.3-2.2c-0.4,0-1.3-0.8-0.5-1.4
				c1-0.7,1.7-1.5,2.3-2.5c0.2-0.3,0.7-0.4,1-0.5c2.1-0.1,2.7-1.6,3.1-3.2c0.1-0.5,0.1-1.1,0.5-1.5c1.3-1.7,1.2-4,2.4-5.8
				c0.1-0.2,0.1-0.6,0-0.9c-0.1-1.1-0.2-2.2,0.2-3.3c0.2-0.7,0.2-1.5-0.5-2c-0.7-0.6-0.9-1.3-0.7-2.2c0.1-0.5,0.1-1.1,0.1-1.6
				c0-1.5-1-2.2-2.4-1.8c-1.5,0.4-1.8,0.2-2-1.3c-0.1-0.8-0.5-1-1.2-0.9c-0.7,0.1-1.3,0.1-1.9-0.3c-1.3-1-2.9-1.5-4.3-2.3
				c-1.6-0.9-3.3-0.8-4.8,0.4c-0.8,0.7-1.7,1.3-2.6,2c-1,0.7-2.1,1-3.3,0.6c-0.8-0.3-1.4-0.1-2.1,0.3c-0.7,0.4-1.2,0.9-1.7,1.4
				c-0.4,0.4-0.7,0.7-1.3,0.4c-0.7-0.3-0.9,0.1-0.9,0.7c0,0.7,0,1.4,0.6,1.8c1.5,1.1,1.5,2.5,1,4c-0.6,1.8-0.3,3.3,1.2,4.5
				c1.3,1.1,1.6,2.6,1.1,4.2c-0.2,0.6-0.1,1.2,0,1.8c0.1,1.1,0.8,2.1,0.6,3.1c-0.2,1,0.1,1.7,0.7,2.4c0.4,0.5,0.9,1,0.7,1.7
				c-0.2,1.1,0.1,2.1,0.5,3c0.6,1.7,1.1,3.5,0.4,5.3c-0.3,0.8-0.1,1.4,0.3,2.1c0.7,1.1,1.4,2.3,0.7,3.7c-0.6,1.3-0.5,2.5,0.1,3.8
				c0.9,1.9,2.1,3.7,1.6,5.9c-0.1,0.4,0.1,0.8,0.4,1c0.9,0.5,1.1,1.3,1,2.3c0,0.4,0,0.8,0.1,1.1c0.1,0.4,0.3,1,0.8,0.9
				c0.5-0.1,0.4-0.7,0.3-1.1c-0.3-1.3-0.1-2.3,0.9-3.2c0.6-0.5,0.6-1.1,0.1-1.9c-0.5-0.8-0.7-1.7-0.4-2.5c0.5-1.3,0.3-2.4-0.5-3.4
				c-0.6-0.7-0.8-1.6-0.4-2.5c0.7-1.4,1-2.7,0.1-4C22,54.3,22,54,22.1,53.9c0.7-1.2,0.1-2.3-0.4-3.4c-0.3-0.8-0.1-1.6,0.7-2.1
				c0.8-0.6,1.3,0.1,1.8,0.6c0.6,0.5,1.1,1.4,2,1.2c1.5-0.3,2.2,0.5,2.8,1.5c0.3,0.5,0.5,0.9,0.8,1.4c0.2,0.3,0.5,0.6,0.8,0.2
				c0.8-0.8,1.5-0.5,2.2,0.2c0.2,0.2,0.5,0.3,0.8,0.3c0.6,0,0.9,0.3,1.2,0.8c0.4,0.7,0.8,1.3,1,2.1c0.2,0.7,0.6,1.1,1.3,0.7
				c1.2-0.6,1.8-0.1,2.3,0.9c0.2,0.5,0.5,1,0.7,1.5c0.3,0.6,0.7,1.2,1.4,1.2c1,0.1,1.5,0.7,1.8,1.6c0.5,1.1,1.1,2,2.2,2.6
				c1.1,0.6,2.1,1.3,1.8,2.8c0,0.2,0.1,0.5,0.2,0.7c1.1,1.6,1.7,3.6,3.7,4.4c0.4,0.2,0.7,0.6,0.9,1C52.5,74.3,52.6,74.8,53.1,74.9z"
				/>
			<path class="st2" d="M70.2,41.8c-0.4,0.4-0.8,0.8-1.1,1.3c-0.3,0.4-0.7,0.8-1.3,0.5c-0.6-0.3-0.8-0.8-0.7-1.5
				c0.1-0.4,0.2-0.8,0.3-1.1c1.1-3.1,1.7-6.3,2.5-9.5c0.4-1.7,0.3-3.4,0-5.1c-0.2-1.5,0.2-2,1.7-1.8c0.4,0.1,0.5-0.2,0.7-0.4
				c1-0.7,1.8-0.5,2,0.7c0.2,1,0.2,2-0.3,2.9c-0.8,1.6-0.2,3.1,0.1,4.6c0.2,1,0.2,2-0.1,2.9c-0.1,0.3-0.3,0.5-0.3,0.7
				c-0.1,0.4-0.2,0.9,0.2,1.2c0.3,0.3,0.6-0.2,0.9-0.3c0.9-0.2,1.5-0.7,2.1-1.3c0.6-0.6,1.2-1.1,2.1-1c0.6,0,0.8-0.5,1.2-0.8
				c1.7-1.5,3.2-3.1,5.3-4.1c0.5-0.3,1-0.5,1.6-0.6c0.4,0,0.8,0.1,1,0.5c0.2,0.4,0.1,0.8-0.2,1.1c-1.5,1-2.6,2.4-3.6,3.8
				c-0.1,0.1-0.2,0.2-0.4,0.3c-1.8,0.9-2.9,2.3-3.6,4.2c-0.6,1.5-2.3,2-3.7,2.6c-1.4,0.5-1.6,1.1-0.8,2.4c0.8,1.3,1.5,2.5,2.4,3.7
				c0.5,0.7,1,1.2,1.9,1.4c1.2,0.2,1.8,1,1.9,2.1c0.1,0.5,0.1,1,0.4,1.4c1.1,1.4,1.3,3.1,1.5,4.8c0.2,1.8,0.9,3.4,1.5,5.1
				c0.2,0.7,0.4,1.3,0.5,2c0.1,0.8,0.1,1.7-1.2,1.4c-0.5-0.1-0.3,0.3-0.4,0.5c-0.1,0.6-0.4,1.1-1,1c-0.7,0-0.9-0.6-1-1.2
				c-0.2-2.1-0.7-4-1.9-5.7c-0.3-0.5-0.4-1.1-0.7-1.6c-0.2-0.5-0.2-1.1-0.6-1.4c-1.4-1.2-1.8-2.8-2.2-4.4c-0.3-1.5-1.7-2.4-2.3-3.8
				c0-0.1-0.2-0.2-0.2-0.2c-0.2,0.1-0.3,0.2-0.4,0.3c-0.5,0.6-1.6,0.3-1.7,1.6c-0.2,2.9-1,5.7-2.3,8.3c-0.2,0.4-0.3,1-1,1
				c-0.7,0-0.6-0.6-0.9-1c-0.7-1-0.4-2-0.1-3c0.7-2,1-4.1,1.3-6.2c0.1-0.7,0.2-1.3-0.3-1.9c-0.3-0.3-0.2-0.8,0-1.1
				c1-1.7,0.5-3.7,1.3-5.4C70.3,41.9,70.2,41.9,70.2,41.8z M85.3,65.4c0.2-0.9-0.1-1.7-0.4-2.4c-0.8-2.2-1.5-4.5-1.8-6.8
				c-0.1-1-0.5-1.9-1.1-2.8c-0.4-0.6-0.7-1.2-0.7-1.9c0-1-0.6-1.6-1.5-1.7c-0.9-0.1-1.5-0.6-2-1.3c-0.9-1.3-1.8-2.6-2.6-3.9
				c-1-1.6-0.6-2.7,1.2-3.4c1.8-0.6,3.5-1.5,4-3.7c0.2-1,0.9-1.7,1.9-2.2c0.8-0.4,1.8-0.9,2.2-1.8c0.6-1.2,1.5-1.9,2.5-2.7
				c0.2-0.2,0.6-0.3,0.6-0.7c-0.5-0.2-0.9,0-1.3,0.2c-1.1,0.6-2.1,1.3-3.1,2c-1.6,1.2-2.6,3.2-4.9,3.4c-0.1,0-0.3,0.1-0.4,0.3
				c-1,1.3-2.7,1.7-3.9,2.7c-0.5,0.4-0.7,0.2-0.8-0.4c-0.1-1-0.3-2,0.3-3c0.4-0.7,0.2-1.5,0-2.3c-0.4-1.6-0.9-3.3-0.1-4.9
				c0.3-0.7,0.4-1.5,0.3-2.3c0-0.4,0-0.8-0.4-1c-0.4-0.1-0.6,0.2-0.9,0.5c-0.2,0.3-0.5,0.5-0.9,0.4c-1.1-0.2-1.3-0.1-1.1,1.1
				c0.4,2.1,0.3,4.1-0.2,6.1c-0.8,2.8-1.2,5.7-2.3,8.5c-0.1,0.3-0.2,0.7-0.3,1c-0.1,0.3-0.1,0.6,0.2,0.7c0.3,0.2,0.5-0.1,0.7-0.3
				c0.3-0.4,0.7-0.8,1-1.1c0.3-0.3,0.5-0.6,1-0.4c0.4,0.2,0.5,0.7,0.3,1c-0.6,1.8-0.2,3.7-1.2,5.4c-0.2,0.3-0.3,0.6,0,0.9
				c0.4,0.5,0.4,1.2,0.3,1.8c-0.3,2.1-0.5,4.2-1.2,6.2c-0.4,1.2-0.7,2.4,0.3,3.5c0.4-0.5,0.6-1.1,0.8-1.6c1.1-2.5,1.5-5.2,1.9-7.8
				c0.1-0.5,2.2-1.9,2.7-1.8c0.2,0,0.4,0.2,0.5,0.3c0.3,1.1,1.4,1.7,1.9,2.7c1,2.1,1.7,4.2,2.9,6.2c1.2,2,2.5,4.1,2.9,6.6
				c0.1,0.6,0.3,1.3,0.3,1.9c0,0.2,0,0.5,0.3,0.5c0.3,0,0.3-0.3,0.4-0.5c0-0.5,0-0.9,0-1.4c0-0.3-0.2-0.8,0.2-0.9
				c0.4-0.1,0.4,0.4,0.6,0.6C84.6,64.9,84.7,65.3,85.3,65.4z"/>
			<path class="st2" d="M63.4,52.9c-0.6-0.1-1.2,0.1-1.8,0.5c-0.6,0.5-1.2,1-2.2,0.7c-0.5-0.2-0.7,0.3-0.9,0.7
				c-0.5,0.8-0.9,1.7-1.3,2.6c-0.3,0.5-0.6,0.9-1.3,0.8c-0.6-0.1-0.8-0.7-0.8-1.3c-0.1-0.8-0.2-1.6-0.9-2.2
				c-0.4-0.3-0.5-0.8-0.3-1.3c0.2-0.8-0.2-1.1-0.9-1c-1.7,0.1-2-0.3-1.6-2c0.2-0.6,0.3-1-0.4-1.4c-0.5-0.2-0.3-1-0.2-1.5
				c0.2-0.5,0.5-0.9,0.8-1.4c0.5-0.8,1-1.6,0.9-2.6c0-0.5,0.2-0.9,0.4-1.3c0.2-0.5,0.5-1,0.5-1.5c-0.1-1.7,0.9-2.6,2.4-3.1
				c0.7-0.2,1.1-0.5,1.3-1.3c0.4-1.7,3.2-2.6,4.6-1.7c0.5,0.3,0.9,0.4,1.5,0.2c0.7-0.2,1.3-0.4,2.1-0.1c0.9,0.3,1.1,0.9,0.6,1.7
				c-0.6,1-1.7,1.2-2.7,1.3c-0.5,0.1-1.1,0-1.6,0.1c-0.4,0.1-1.2,0.1-0.8,1c0.2,0.4-0.2,0.7-0.5,1c-1,0.9-2.1,1.7-3.1,2.6
				c-0.7,0.7-1.3,1.4-0.1,2.2c0.5,0.4,0.6,1.1,0.2,1.7c-0.4,0.8-0.8,1.5-1.2,2.2c-0.2,0.4-0.3,0.7,0,1.1c0.4,0.4,0.7,0.1,1-0.1
				c1.8-1,3.6-1.3,5.4-0.1c0.7,0.5,1.3,0.5,2-0.1c0.4-0.4,0.9-0.6,1.4-0.2c0.5,0.4,0.5,0.9,0.4,1.5C66.1,52.3,65,53.1,63.4,52.9z
				 M51.3,48.6c0.3,0.1,0.4-0.1,0.5-0.2c0.2-0.2,0.5-0.6,0.8-0.3c0.3,0.3,0.1,0.6,0,0.9c-0.2,0.5-0.5,1.1-0.6,1.6
				c-0.3,0.9-0.2,1.4,1,1.3c1.3-0.1,1.6,0.3,1.5,1.6c0,0.2-0.1,0.5,0.1,0.7c0.9,0.7,1.1,1.7,1.2,2.8c0,0.2,0.1,0.5,0.3,0.5
				c0.3,0,0.4-0.2,0.5-0.4c0.3-0.5,0.5-1.1,0.8-1.7c0.6-1,1-2.4,2.7-1.9c0.2,0.1,0.5-0.2,0.7-0.3c0.8-0.7,1.8-1,2.9-0.8
				c1.1,0.1,1.6-0.6,2-1.4c0.1-0.3,0.2-0.7,0-0.9c-0.3-0.3-0.6,0.1-0.8,0.2c-0.8,0.6-1.6,0.7-2.4,0.1c-1.7-1.1-3.4-0.9-5.1,0
				c-0.6,0.3-1.1,0.5-1.7,0c-0.5-0.5-0.5-1.1-0.2-1.7c0.3-0.6,0.7-1.2,1-1.8c0.4-0.7,0.6-1.3-0.3-1.9c-0.6-0.4-0.6-0.9-0.4-1.5
				c0.3-0.7,0.8-1.2,1.4-1.7c0.8-0.7,1.7-1.2,2.4-2c0.1-0.2,0.5-0.3,0.3-0.5c-0.9-1.4,0.4-1.4,1.1-1.6c0.9-0.3,1.8-0.2,2.8-0.3
				c0.8-0.1,1.7-0.5,1.6-1.2c-0.1-0.9-1.1-0.5-1.7-0.4c-0.9,0.2-1.7,0.3-2.5-0.4c-0.9-0.7-3.3,0.4-3.5,1.6c-0.1,1-0.7,1.3-1.5,1.5
				c-0.8,0.2-1.8,0.5-1.9,1.3c-0.2,1.5-1,2.8-1.2,4.2C53,45.1,52.6,46,52,46.9C51.6,47.4,51.2,47.9,51.3,48.6z"/>
			<path class="st2" d="M45.1,55.7c0.8-1.9-0.7-3.9-0.7-6c0-0.6-0.1-1.2,0-1.8c0.1-1.2,0.2-2.3-0.7-3.2c-0.5-0.5-0.3-1.2-0.1-1.9
				c0.2-0.5,0.5-1.1,0.6-1.6c0.1-0.4,0.3-0.9-0.1-1.2c-0.9-0.6-0.8-1.3-0.5-2.1c0.3-0.7,0.1-1.3,0-2c-0.2-1.2,0.1-1.5,1.2-1.3
				c0.5,0.1,0.6-0.2,0.9-0.4c0.5-0.3,1-0.3,1.5,0c0.4,0.3,0.5,0.7,0.4,1.2c-0.1,0.4-0.1,0.8,0.1,1.2c0.4,0.9,0.4,1.8,0.1,2.7
				c-0.2,0.7-0.4,1.5-0.4,2.3c0,0.7,0.2,1.3,0.8,1.8c1,0.9,1.1,1.5,0.4,2.6c-0.7,0.9-0.9,1.8-0.3,2.9c0.6,1,0.3,2.1-0.2,3
				c-0.6,1.3-0.8,2.7-0.7,4.2c0,0,0,0.1,0,0.1c-0.1,0.9,0.2,2.1-1.1,2.3C45.8,58.6,45.1,57.3,45.1,55.7z M45.8,54.9
				c0,0.4,0,0.9,0,1.4c0,0.6,0.1,1.4,0.7,1.4c0.6,0,0.6-0.9,0.5-1.3c-0.3-1.8,0.1-3.4,0.8-5.1c0.3-0.7,0.5-1.4,0.1-2.1
				c-0.8-1.3-0.5-2.5,0.4-3.6c0.5-0.6,0.4-1.3-0.3-1.7c-0.9-0.5-1.2-1.4-1.1-2.3c0.3-2,0.7-4.1,0.1-6.1c0,0,0-0.1,0-0.1
				c0.1-0.9-0.3-0.9-1-0.7c-0.6,0.3-1.6,1.7-1.7,2.4c0,0.2,0,0.3-0.1,0.5c-0.2,0.8-0.5,1.5,0.4,2.1c0.3,0.2,0.2,0.7,0.2,1.1
				c-0.1,0.7-0.5,1.3-0.7,2c-0.2,0.5-0.5,1.2,0,1.6c1.2,1.1,0.9,2.4,0.7,3.7c-0.2,1.2,0.2,2.5,0.4,3.6
				C45.6,52.7,45.9,53.7,45.8,54.9z"/>
			<path class="st2" d="M45.1,23.2c0.5,0,0.9,0.4,1,1.3c0,0.6-0.1,1.1,0.8,1.2c0.7,0.1,0.8,0.9,0.7,1.5c-0.3,1.1-0.3,2.2-0.5,3.3
				c-0.3,1.4-1.8,1.8-2.8,0.9c0,0,0-0.1-0.1-0.1c-1.9-1.8-1.9-1.8-0.9-4.4c0.2-0.5,0.1-0.9-0.1-1.3C42.7,24.3,43.5,23.2,45.1,23.2z
				 M45.4,24.9c0-0.4,0.2-1.1-0.7-1c-0.7,0-1.3,0.6-1,1.2c0.6,1.2,0,2.1-0.4,3c-0.4,0.9-0.4,1.7,0.6,2.1c0.2,0.1,0.4,0.2,0.5,0.4
				c0.3,0.4,0.7,0.7,1.3,0.5c0.6-0.2,0.7-0.7,0.8-1.2c0.1-1,0.2-1.9,0.5-2.8c0.1-0.4,0-0.9-0.6-0.9C45.3,26.3,45.3,25.7,45.4,24.9z"
				/>
			<path class="st1" d="M103.2,47.6c0.9-1.1,1-2.1,1-3.2c-0.1-1.2,0-2.5,0-3.7c0-0.5,0.1-1.1,0.7-1.2c0.6-0.2,1,0.2,1.4,0.7
				c0.5,0.7,0.5,1.4,0.7,2.2c0.1,0.4,0.1,0.9,0.7,0.9c0.9,0,1.3,0.5,1.5,1.5c1-1.8,1.4-3.6,2.3-5.2c0.3-0.4,0.5-1,1.1-0.9
				c0.7,0.1,0.9,0.7,0.9,1.3c0,0.7,0,1.3-0.1,2c-0.5,2.6-0.9,5.3-1.2,8c0.5-0.9,0.8-1.8,1.5-2.6c0.8-0.7,1.5-1.5,2.3-2.1
				c0.8-0.5,1.1-1.2,1.2-2.1c0.3-1.6,1.1-3,1.4-4.6c0.2-1.1,0.2-2.3,0.9-3.3c0.2-0.4,0.4-0.7,0.7-1c0.5-0.4,1-0.5,1.5-0.2
				c0.5,0.3,0.6,0.8,0.5,1.3c-0.2,0.7-0.4,1.3-0.6,2c-0.3,1-0.5,1.9,0.2,2.9c0.4,0.6,0.2,1.3-0.1,1.9c-1,2.5-0.9,5.1-0.8,7.6
				c0,0.6,0.1,1.2,0.4,1.8c0.4,0.9,0.7,2,0.9,3c0.2,1-0.2,1.7-1.1,2.1c-0.9,0.3-1.6-0.3-2-1c-0.3-0.5-0.4-1.1-0.6-1.7
				c-2.1,2.2-5.1,1.4-6.7-1.7c-0.2,0.7,0,1.7-1,1.8c-1,0.1-1-0.9-1.3-1.5c-0.8-1.6-1.6-3.3-3.1-4.5c0.4,1.2,0.3,2.4,0.2,3.6
				c0,0.9-0.2,1.7-1.3,1.9c-0.8,0.1-1.3-0.6-1.3-1.8c0-0.6,0-1.1-0.7-1.6c-0.1,1,0,2,0.1,2.9c0.1,0.5,0.1,0.9,0.1,1.4
				c0,0.7-0.3,1.3-1,1.4c-0.7,0.2-1-0.4-1.3-1c-0.6-1.3-1.1-2.6-1.5-4c-0.1-0.2-0.1-0.4-0.2-0.7c-0.2-0.8-0.7-1.6-1.3-1.6
				c-0.7,0-0.8,1-0.9,1.7c-0.1,0.6-0.3,1.1-0.7,1.6c-0.2,0.2-0.5,0.5-0.3,0.8c0.6,1.3-0.5,2.1-0.8,3.1c-0.1,0.4-0.5,0.7-1,0.6
				c-0.5-0.1-0.8-0.5-0.7-0.9c0.1-1-0.2-1.8-0.6-2.7c-0.3-0.7,0-1.4,0.3-2c0.7-1.2,1.1-2.5,1.4-3.8c0.1-0.5,0.3-1,0.1-1.5
				c-0.8-1.8,0.3-3.3,0.9-4.8c0.1-0.2,0.4-0.5,0.6-0.5c1.3-0.1,1.3-1,1.5-1.9c0.1-0.6,0.3-1.2,0.7-1.7c0.3-0.4,0.7-0.7,1.3-0.6
				c0.6,0.1,0.7,0.5,0.8,1c0.2,1.6,0.4,3.2,0.6,4.8C101.9,43.6,102.4,45.6,103.2,47.6z M112.7,51.9c-0.1,0.9,0.5,1.7,1.9,2
				c0.1,0,0.3,0.1,0.4,0.2c1.8,0.8,2.3,0.6,3.2-1c0.2-0.3,0.2-0.8,0.7-0.7c0.4,0.1,0.4,0.5,0.5,0.8c0.2,0.8,0.2,1.5,0.6,2.2
				c0.3,0.4,0.6,0.7,1.2,0.5c0.5-0.2,0.6-0.6,0.6-1c0-0.3-0.1-0.6-0.2-0.9c-0.2-1.4-1.2-2.6-1.2-4c-0.1-2.5-0.3-5,0.7-7.4
				c0.4-1,0.6-2-0.1-3c-0.3-0.4-0.2-1,0-1.5c0.2-0.9,0.5-1.7,0.7-2.6c0.1-0.4,0.3-0.8-0.2-1c-0.5-0.2-0.8,0.1-1,0.5
				c-0.3,0.5-0.6,1-0.7,1.6c-0.3,2.1-1.1,4.1-1.6,6.1c-0.4,1.6-1.1,2.7-2.4,3.6c-0.1,0.1-0.3,0.2-0.4,0.3
				C113.8,47.8,112.8,49.4,112.7,51.9z M94.8,55.4c0.4-0.8,1.5-1.4,1.2-2.4c-0.2-0.7,0-1.2,0.4-1.7c0.3-0.4,0.5-0.9,0.6-1.5
				c0.2-0.9,0.5-2.1,1.4-2.2c1-0.1,1.6,1,2,1.9c0.1,0.2,0.1,0.4,0.2,0.7c0.3,1.3,0.7,2.6,1.4,3.8c0.2,0.3,0.2,1,0.8,0.8
				c0.5-0.1,0.4-0.7,0.3-1.1c-0.6-2.5,0.1-5.1-1-7.6c-0.7-1.6-1-3.5-1.2-5.4c-0.1-1.2-0.4-2.4-0.4-3.7c0-0.3-0.1-0.7-0.4-0.7
				c-0.3-0.1-0.5,0.3-0.7,0.5c-0.5,0.7-0.5,1.5-0.7,2.3c-0.1,0.5-0.3,1.1-0.8,1.1c-1.1,0-1.3,0.9-1.6,1.7c-0.3,0.8-0.8,1.5-0.5,2.4
				c0.4,1.1,0.3,2.1-0.1,3.1c-0.4,1.1-0.7,2.2-1.3,3.2c-0.2,0.4-0.5,0.8-0.3,1.3C94.3,53.1,94.8,54.2,94.8,55.4z M112.4,39.2
				c-1.1,1.8-1.7,3.7-2.4,5.5c-0.2,0.6,0.3,1.8-0.4,1.8c-0.7,0-0.8-1.1-1.1-1.8c-0.2-0.4-0.3-0.8-0.9-0.8c-0.8,0.1-1-0.4-1.2-1
				c-0.3-0.8-0.3-1.6-0.7-2.3c-0.1-0.2-0.3-0.5-0.7-0.4c-0.3,0.1-0.2,0.4-0.2,0.6c0.1,1.3-0.3,2.7-0.1,4c0.2,0.9-0.1,1.7-0.6,2.4
				c-0.4,0.7-0.5,1.5-0.2,2.1c0.5,0.8,0.7,1.7,0.7,2.6c0,0.3,0.1,0.7,0.6,0.8c0.5,0,0.7-0.4,0.7-0.8c-0.1-1.1,0.4-2.2-0.1-3.3
				c-0.2-0.5-0.1-1.1-0.1-1.7c0-0.2,0.1-0.5,0.3-0.6c0.3-0.1,0.4,0.1,0.5,0.3c1.5,1.9,2.9,3.8,3.8,6c0.1,0.2,0.2,0.6,0.5,0.5
				c0.3,0,0.2-0.4,0.3-0.6c0.3-1.1,0.1-2.2,0.2-3.3c0.4-2.8,0.9-5.5,1.4-8.3C112.9,40.4,113,39.8,112.4,39.2z"/>
			<path class="st3" d="M138.5,23.3c0,0.1,0,0.2,0,0.2c0,0.5-0.2,1.1,0.3,1.2c0.5,0.2,0.6-0.5,0.9-0.8c0.1-0.1,0.1-0.2,0.2-0.3
				c0.1,0.1,0.2,0.1,0.2,0.2c0.2,0.4,0.1,1.2,0.8,1.1c0.6,0,0.7-0.7,0.9-1.2c0.2-1,0.6-1.8,1.3-2.5c0.5-0.5,0.7-1.2,0.8-1.9
				c0.1-1.6,1-2.7,1.9-3.9c0.1-0.2,0.3-0.4,0.6-0.3c0.2,0.1,0.3,0.3,0.3,0.6c0,0.9-0.4,1.7-0.7,2.4c-0.5,1.5-1.1,3.1-1,4.7
				c0,0.6,0.1,1.1,0.5,1.5c0.8,0.6,0.8,1.3,0.7,2.2c-0.1,1.3-0.3,2.5,0.6,3.7c0.2,0.3,0.2,0.7,0.2,1.1c-0.1,0.9-0.3,1.7,0.7,2.3
				c0.5,0.3,0.3,1,0.2,1.5c-0.2,2.9-0.1,5.7,0.8,8.5c0.1,0.4,0,0.7,0,1c0,0.4,0.1,0.8,0.5,0.9c0.5,0.1,0.7-0.3,0.8-0.7
				c0.7-1.6,0.8-3.4,0.8-5.1c0.1-1.6,0-3.2,0.4-4.8c0.4-1.5,1-2.9,2-4.1c1.3-1.4,1.4-3.3,1.8-5.1c0.6-2.4,1-4.8,2.7-6.8
				c1.1-1.2,1.4-2.7,1.5-4.3c0-0.6,0.1-1.1,0.5-1.6c0.9-1,1.7-2.1,2.3-3.3c0.1-0.3,0.4-0.9,0.9-0.7c0.5,0.2,0.3,0.8,0.2,1.3
				c-0.3,0.9-0.7,1.8-1.1,2.7c-1.8,3.8-2.3,7.7-1,11.8c0.3,0.8,0.4,1.8,0.4,2.6c-0.2,3.2,1.2,6.1,1.3,9.2c0,1.2-0.1,2.4,0.8,3.5
				c0.4,0.5-0.1,1.3-0.2,1.9c0,0.4-0.3,0.9-0.2,1.2c0.6,2,0.1,3.8-0.8,5.6c-0.5,1-0.1,2,0.4,2.9c0.5,1,0.7,1.9,0.4,3
				c-0.2,0.9,0,1.7,0.6,2.4c0.8,0.8,0.9,1.8,0.6,2.8c-0.4,1.5-0.3,2.8,0.7,4.1c1,1.3,0.7,3,1.1,4.6c-0.7-0.4-0.7-2.2-1.8-0.6
				c-0.1-0.2-0.1-0.3-0.1-0.4c0.5-1.6,0-2.8-1.6-3.6c-0.8-0.4-0.6-1.3-0.6-2c0-0.7,0-1.3-0.8-1.6c-0.7-0.3-0.7-0.9-0.6-1.5
				c0.7-2.2,0.2-4-1.1-5.9c-1-1.3-0.9-3.1-0.8-4.7c0.1-1.1,0-2.1-0.4-3.1c-0.9-2.3-0.2-4.5,0.6-6.6c0.7-1.7,0.5-2.9-0.9-4.1
				c-0.8-0.7-0.5-1.8-0.6-2.7c0-0.5,0.3-1.3-0.3-1.4c-0.7-0.2-0.8,0.7-1,1.2c-0.5,1.9-1,3.8-0.6,5.8c0.3,1.6-0.3,3.1-1.4,4.3
				c-1.1,1.2-1.5,2.6-1.4,4.2c0.1,1.3-0.2,2.6-0.9,3.8c-0.8,1.4-0.8,3-0.8,4.6c0,0.5,0.2,1.2-0.4,1.3c-0.6,0.1-0.9-0.5-1.1-1
				c-0.3-0.7-0.4-1.5-0.4-2.3c0-0.8-0.4-1.5-1.2-1.6c-1.2-0.2-1.4-1.1-1.3-2.1c0.3-2-0.3-3.9-0.9-5.7c-0.5-1.3-0.8-2.6-1-3.9
				c-0.1-1-0.6-1.8-1.3-2.6c-1-1.4-2.6-2.6-2-4.7c0.1-0.5,0.1-1.2,0-1.7c0-0.4-0.1-0.9-0.6-1c-0.5-0.1-0.7,0.3-0.9,0.6
				c-0.8,2.1-1.9,4.3-1.2,6.6c0.6,2.2-0.1,4.2-0.3,6.3c-0.3,2.9-1.3,5.8-0.9,8.8c0.1,0.6-0.2,1.1-0.7,1.5c-1.5,1.5-2.3,3.2-1.7,5.3
				c0.4,1.6,0.4,3.1-0.3,4.6c-0.5,1-0.6,2.2-0.9,3.3c-0.1,0.4-0.2,1-0.7,0.9c-0.4-0.1-0.4-0.6-0.4-1c0-0.7,0-1.4,0-2.1
				c0-1.3,0.3-2.7-0.3-4c-0.2-0.5,0.1-1,0.2-1.5c0.3-1.6,0.3-3.1-0.3-4.6c-0.9-2.3-0.7-4.3,1-6.3c1.9-2.2,1.7-4.8,1.3-7.5
				c-0.4-2.1-0.2-4.2,0.5-6.3c0.9-2.7,1.8-5.5,2-8.4c0-0.8,0.3-1.6,0.8-2.3C138.4,23.2,138.4,23.2,138.5,23.3z"/>
			<path class="st3" d="M138.3,23.1c0.1-0.1,0.1-0.2,0.2-0.4c0.1,0.2,0.1,0.3,0,0.5C138.4,23.2,138.4,23.2,138.3,23.1z"/>
			<path class="st3" d="M215.2,23.9c1.1,1.8,1.8,3.7,2.3,5.7c0.4,1.8,0.9,3.6,2.3,5.1c0.8,0.9,0.7,2.2,0.6,3.3
				c-0.2,2.1,0.4,3.9,1.6,5.6c0.8,1,0.3,2-0.1,2.9c-0.1,0.3-0.5,0.7-0.1,0.9c0.4,0.3,0.8,0,1-0.3c1-2,3.1-2.1,4.8-2.8
				c2.6-1,4.8-2.5,6.9-4.2c1-0.8,2.3-1.2,3.6-1.8c0,0.6-0.4,0.8-0.6,1c-2.6,2.6-5.7,4.8-8.9,6.6c-0.8,0.4-1.4,1-1.8,1.9
				c-0.6,1.5-2,2.2-3.4,2.7c-1.7,0.6-2.9,1.5-3.7,3.1c-0.3,0.5-0.7,0.9-1.2,1.3c-1.1,0.8-2.2,1.6-3.3,2.3c-1,0.7-1.9,1.5-2.1,2.8
				c-0.1,0.7-0.6,1.1-1,1.5c-1.1,1.1-1.7,2.6-2.7,3.8c-1.7,2-3.4,4.1-5.6,5.6c-0.6,0.4-1.3,0.5-2,0.5c-2.3,0.2-3.7,1.8-5.2,3.2
				c-0.5,0.4-1,1.3-1.5,0.8c-0.5-0.5,0.3-1.2,0.8-1.7c1.6-1.4,3.1-2.9,5.1-3.8c0.8-0.4,1.4-0.9,1.8-1.7c0.3-0.6,1-1,1.4-1.5
				c1.3-1.8,3.3-3,4.6-4.8c0.4-0.5,0.2-1-0.1-1.4c-0.4-0.6-0.3-1.1,0.2-1.6c0.8-0.9,1.8-1.5,2.9-2.1c0.4-0.2,1-0.6,0.3-1.1
				c-0.8-0.6-0.2-0.7,0.2-0.9c1-0.4,2.1-0.8,3.2-1.1c0.8-0.3,1.2-0.8,1-1.6c-0.2-1,0-1.9,0.3-2.8c0.5-1.3,0.8-2.6,1.1-3.9
				c0.1-0.5,0-0.9-0.5-1c-0.8-0.1-0.9-0.6-0.9-1.2c0-1.4-0.3-2.8-0.9-4c-0.2-0.3-0.3-0.7-0.3-1.1c0-2.6-0.2-5.2-0.5-7.7
				c-0.1-0.4-0.1-0.9,0.5-1.2c0.4-0.2,0.3-0.7,0.4-1C215.4,26.7,215.4,25.3,215.2,23.9z"/>
			<path class="st3" d="M194.7,55.4c-0.2,1.4,0.1,2.6,0.8,3.8c0.2,0.4,0.4,0.8,0.4,1.2c0,0.4,0.1,0.8-0.3,1
				c-0.4,0.1-0.7-0.2-0.9-0.6c-0.2-0.2-0.3-0.5-0.4-0.8c-0.2-1.7-1.2-3.3-1-5.1c0-0.4-0.1-0.9-0.4-1.2c-1.4-1.4-2.1-3.4-3.7-4.6
				c-0.5-0.4-0.5-0.9-0.5-1.5c0-0.7,0-1.4-0.1-2.1c0-0.4-0.3-0.7-0.7-0.7c-0.3,0-0.6,0.2-0.7,0.5c-0.3,0.5-0.4,1.1-0.3,1.7
				c0.2,1.9,0.3,3.7-0.6,5.4c-0.3,0.5-0.2,1.1-0.2,1.7c0,0.5-0.1,1-0.3,1.5c-0.1,0.2-0.3,0.3-0.6,0.3c-0.3,0-0.4-0.3-0.4-0.5
				c0.3-1.7-0.4-3.5,0.1-5.2c0.2-0.7,0.2-1.3-0.2-1.9c-0.5-0.8-0.3-1.6,0.1-2.4c0.6-1.2,0.4-1.9-0.6-2.8c-0.7-0.6-0.7-1.4-0.5-2
				c0.7-2,0.3-4,0.4-6c0.1-1.1,0.4-2.1,0.2-3.2c0-0.4-0.2-0.9,0.4-0.9c0.6-0.1,0.7,0.4,0.7,0.8c0,1.2,0.1,2.5,0.4,3.7
				c0.1,0.3-0.1,0.8,0.4,0.9c0.5,0.1,0.6-0.4,0.8-0.7c0.5-1.2,1.3-2.1,2.1-3c0.4-0.5,0.8-0.7,1.4-0.4c0.8,0.5,1.6,0.5,2.5,0.4
				c1.2-0.1,1.6,0.5,1.2,1.6c-0.2,0.5-0.1,0.8,0.2,1.2c0.5,0.6,0.9,1.4,1.3,2c1,1.4,0.3,3.5-1.5,4c-1.4,0.4-2.4,1.5-3.7,2
				c-0.8,0.3-0.7,1.3,0.1,1.9c1.5,1,2.7,2.2,2.4,4.3c-0.1,0.4,0.2,0.8,0.4,1.2C194.5,52.2,195,53.7,194.7,55.4z M186.8,39.1
				c-0.1,0.7,0.2,1,0.5,1.4c0.3,0.3,0.7,0.7,0.9,1c0.9,1.4,1.5,1.5,2.7,0.1c0.6-0.7,1-1.5,0.7-2.3c-0.3-1.1-0.1-1.9,0.9-2.5
				c0.5-0.3,0.6-0.8,0-1.2c-0.8-0.5-3.1-0.1-3.6,0.7c-0.5,0.8-0.8,1.7-1.8,2.2C186.9,38.6,186.9,39,186.8,39.1z"/>
			<path class="st3" d="M200.5,64.8c-0.8-1.3-0.7-2.6-0.4-3.8c0.4-2.1,0.8-4.1,0.1-6.1c0-0.1-0.1-0.2,0-0.3c0.4-1.3,0.1-2.5-0.1-3.9
				c-0.2-1,0.2-2.3,0.7-3.4c0.2-0.4,0.4-0.8,0.3-1.3c0-0.3-0.2-0.6-0.5-0.5c-0.9,0.3-1.6-0.3-2.2-0.7c-0.6-0.3-1.1-0.1-1.7-0.3
				c-0.2-0.1-0.5-0.2-0.5-0.5c0-0.3,0.3-0.4,0.5-0.4c1.1,0,2-1,3.2-0.9c0.7,0,0.9-0.9,0.9-1.6c-0.2-2,0.8-3.7,0.9-5.6
				c0.1-0.8,0.6-1.7,0.6-2.6c0.2-2,1.6-3.6,2.3-5.4c0.2-0.4,0.7-0.7,1.2-0.5c0.6,0.3,0.3,0.8,0.1,1.2c-0.4,0.8-0.9,1.6-1.3,2.4
				c-0.4,0.7-0.4,1.3,0.2,1.8c0.8,0.7,0.6,1.5,0.4,2.2c-0.8,2.3-1,4.8-2,7.1c-0.4,0.9,0.1,1.3,1.1,1.3c0.5,0,0.9-0.1,1.4-0.1
				c0.4,0,0.7,0.1,0.7,0.6c-0.1,0.8,0.3,0.7,0.8,0.4c0.9-0.5,1.8-0.3,2.4,0.4c0.6,0.6,1.3,0.4,1.9,0.7c0.3,0.2,0.8,0.2,0.9,0.7
				c0.1,0.5-0.4,0.5-0.7,0.7c-0.2,0.1-0.4,0.2-0.4,0.3c-0.1,1.7-1.1,0.7-1.6,0.4c-0.8-0.4-1.5-0.8-2.5-0.5c-0.7,0.2-1.5,0-2-0.6
				c-0.4-0.4-0.9-0.7-1.5-0.4c-0.6,0.3-0.6,0.9-0.5,1.4c0.1,1.2,0.2,2.4-0.4,3.6c-0.1,0.3,0,0.7,0.1,1c0.2,1,0.1,1.9-0.4,2.8
				c-0.7,1.2-0.5,2.7-0.6,4C201.8,60.6,201.2,62.6,200.5,64.8z"/>
			<path class="st3" d="M167.9,49.1c0.2-1.3,0-2.6-0.8-3.8c-0.5-0.8-0.5-1.7,0.1-2.4c0.6-0.8,0.9-1.6,1-2.5c0.1-0.8,0.4-1.5,1-1.9
				c1.3-0.7,2-2,2.9-3c1-1.2,2.1-1.8,3.6-1.4c1.6,0.5,3.1,1.3,3.5,3.1c0.1,0.6,0.4,1.1,0.6,1.7c0.3,1.2,0.1,2.4-0.5,3.5
				c-0.6,1.2-0.5,2.2,0.3,3.3c1.6,2,1.5,3-0.2,5c-0.6,0.7-1.2,1.5-1.9,2.2c-0.8,0.8-1.7,1.6-3,1.3c-0.2-0.1-0.5,0.1-0.8,0.2
				c-0.7,0.3-1.2,0.2-1.8-0.5c-0.7-0.9-1.9-1.5-3-1.5c-1-0.1-1.2-0.4-1.3-1.3C167.8,50.4,167.8,49.8,167.9,49.1z M170,45.3
				c0.1,1-0.1,2.2,1.1,2.6c1.1,0.3,1.4,1,1.8,1.9c0.1,0.3,0.2,0.7,0.5,0.7c0.8-0.1,1.7,0.2,2.3-0.4c0.6-0.5,0.3-1.3,0-1.8
				c-0.6-1.2-0.6-2.2,0-3.4c0.3-0.7,0.4-1.5-0.4-2.1c-1.7-1.2-1.7-1.3-1-3.3c0.1-0.4,0.2-0.8-0.2-1.2c-0.4-0.3-0.8-0.2-1.2,0.1
				c-0.8,0.6-1.4,1.3-1.3,2.4c0.1,0.7,0,1.4-0.6,1.9C170.2,43.3,169.9,44.2,170,45.3z"/>
			<path class="st3" d="M53.1,74.9c-0.5-0.1-0.6-0.6-0.9-0.9c-0.3-0.4-0.5-0.8-0.9-1c-2-0.8-2.6-2.8-3.7-4.4
				c-0.1-0.2-0.2-0.5-0.2-0.7c0.3-1.5-0.7-2.2-1.8-2.8c-1.1-0.6-1.8-1.5-2.2-2.6c-0.4-0.8-0.8-1.4-1.8-1.6c-0.7-0.1-1.1-0.6-1.4-1.2
				c-0.2-0.5-0.5-1-0.7-1.5c-0.5-1-1.1-1.6-2.3-0.9c-0.8,0.4-1.1,0-1.3-0.7c-0.2-0.8-0.6-1.4-1-2.1c-0.3-0.5-0.6-0.8-1.2-0.8
				c-0.3,0-0.6-0.1-0.8-0.3c-0.7-0.7-1.4-1-2.2-0.2c-0.4,0.3-0.7,0.1-0.8-0.2c-0.3-0.5-0.5-0.9-0.8-1.4c-0.6-1-1.3-1.9-2.8-1.5
				c-0.9,0.2-1.4-0.7-2-1.2c-0.5-0.4-1-1.1-1.8-0.6c-0.8,0.5-1,1.3-0.7,2.1c0.4,1.1,1.1,2.2,0.4,3.4c-0.1,0.1,0,0.3,0.1,0.4
				c0.9,1.4,0.6,2.7-0.1,4c-0.5,0.9-0.2,1.8,0.4,2.5c0.9,1.1,1.1,2.1,0.5,3.4c-0.4,0.9-0.2,1.8,0.4,2.5c0.5,0.7,0.5,1.3-0.1,1.9
				c-1,0.9-1.2,2-0.9,3.2c0.1,0.4,0.2,1-0.3,1.1c-0.5,0.1-0.7-0.5-0.8-0.9C21,71.8,21,71.4,21,71c0.1-1-0.1-1.8-1-2.3
				c-0.4-0.2-0.5-0.6-0.4-1c0.5-2.3-0.7-4.1-1.6-5.9c-0.6-1.3-0.8-2.5-0.1-3.8c0.7-1.4,0.1-2.6-0.7-3.7c-0.5-0.7-0.6-1.3-0.3-2.1
				c0.7-1.8,0.2-3.6-0.4-5.3c-0.4-1-0.7-2-0.5-3c0.1-0.7-0.3-1.2-0.7-1.7c-0.6-0.7-1-1.4-0.7-2.4c0.3-1.1-0.5-2.1-0.6-3.1
				c-0.1-0.6-0.2-1.2,0-1.8c0.5-1.6,0.2-3.1-1.1-4.2c-1.4-1.2-1.7-2.7-1.2-4.5c0.5-1.5,0.5-3-1-4c-0.6-0.4-0.6-1.1-0.6-1.8
				c0-0.6,0.3-1,0.9-0.7c0.6,0.3,1-0.1,1.3-0.4c0.5-0.5,1-1,1.7-1.4c0.7-0.4,1.3-0.6,2.1-0.3c1.2,0.5,2.3,0.2,3.3-0.6
				c0.9-0.6,1.7-1.3,2.6-2c1.5-1.2,3.2-1.2,4.8-0.4c1.4,0.8,3,1.3,4.3,2.3c0.6,0.4,1.2,0.4,1.9,0.3c0.7-0.1,1.1,0.1,1.2,0.9
				c0.2,1.5,0.5,1.7,2,1.3c1.4-0.4,2.4,0.3,2.4,1.8c0,0.5,0,1.1-0.1,1.6c-0.2,0.9,0,1.6,0.7,2.2c0.7,0.5,0.7,1.3,0.5,2
				c-0.3,1.1-0.2,2.2-0.2,3.3c0,0.3,0.1,0.7,0,0.9c-1.2,1.8-1.1,4.1-2.4,5.8c-0.3,0.4-0.3,1-0.5,1.5c-0.4,1.6-1.1,3.1-3.1,3.2
				c-0.4,0-0.8,0.1-1,0.5c-0.6,1-1.4,1.8-2.3,2.5c-0.8,0.6,0,1.3,0.5,1.4c1.5,0.1,1.7,1.3,2.3,2.2c0.3,0.5,0.3,1.7,1.5,0.8
				c0.3-0.2,0.5,0.3,0.7,0.6c0.4,0.9,0.8,1.5,2,1.1c0.7-0.3,1.3,0.4,1.7,0.9c0.3,0.4,0.6,0.9,0.8,1.4c0.4,1,0.9,1.8,1.8,2.3
				c1,0.5,1.2,1.6,1.5,2.5c0.2,1,0.7,1.7,1.7,2.1c0.2,0.1,0.5,0.2,0.5,0.4c0.6,1.5,1.8,2.4,3.2,3.1c0.6,0.3,0.9,1,0.9,1.7
				c0,0.9,0.4,1.6,1,2.2C52.2,69.4,53,72,53.1,74.9z M31.4,25.9c0.1-1.5-0.7-2.2-2.1-1.8c-0.8,0.2-1.3,0-1.6-0.7
				c-0.4-1.1-1-1.6-2.2-1.2c-0.2,0.1-0.5,0-0.8,0c-1.3-0.3-2.4,0.1-3.4,1c-0.8,0.8-1.6,1.1-2.7,0.8c-1-0.3-1.5,0.3-1.7,1.2
				c-0.1,0.7-0.1,1.3,0.4,1.8c0.4,0.4,0.4,0.8,0.3,1.3c-0.1,1.2-0.2,2.4,0.8,3.3c0.6,0.5,0.8,1.3,0.4,2.1c-0.3,0.6,0,1.3,0.5,1.6
				c0.8,0.5,1,1.2,0.8,2.1c-0.1,0.7,0,1.3,0.6,1.7c0.4,0.3,0.4,0.6,0.2,1c-0.2,0.3-0.3,0.7-0.4,1.1c-0.1,0.4-0.1,0.9,0.2,1.2
				c0.4,0.3,0.8,0.1,1.1-0.2c0.6-0.5,1.2-0.6,1.7,0c0.8,0.8,1.4,0.6,2-0.2c0.6-0.8,1.4-1.3,2.4-1.5c2.3-0.6,2.5-0.8,2.8-3.1
				c0.1-0.8,0.4-1.3,0.9-1.9c1.2-1.3,2.2-2.7,0.8-4.6c-0.1-0.2-0.2-0.5,0-0.7c1.2-1.1,0.1-1.7-0.5-2.4
				C31.9,27.2,31.1,26.8,31.4,25.9z"/>
			<path class="st3" d="M85.3,65.4c-0.6-0.1-0.6-0.5-0.8-0.7c-0.2-0.2-0.2-0.7-0.6-0.6c-0.4,0.1-0.2,0.6-0.2,0.9c0,0.5,0,0.9,0,1.4
				c0,0.2,0,0.5-0.4,0.5c-0.3,0-0.3-0.3-0.3-0.5c0-0.7-0.2-1.3-0.3-1.9c-0.4-2.5-1.7-4.6-2.9-6.6c-1.2-2-1.9-4.1-2.9-6.2
				c-0.5-1-1.6-1.6-1.9-2.7c0-0.1-0.3-0.3-0.5-0.3c-0.5-0.1-2.7,1.3-2.7,1.8c-0.4,2.7-0.9,5.3-1.9,7.8c-0.2,0.6-0.5,1.1-0.8,1.6
				c-1-1.1-0.7-2.3-0.3-3.5c0.7-2,0.9-4.1,1.2-6.2c0.1-0.6,0.2-1.2-0.3-1.8c-0.2-0.3-0.1-0.6,0-0.9c1-1.7,0.6-3.6,1.2-5.4
				c0.1-0.3,0.1-0.8-0.3-1c-0.4-0.2-0.7,0.2-1,0.4c-0.3,0.4-0.7,0.7-1,1.1c-0.2,0.2-0.4,0.5-0.7,0.3c-0.3-0.2-0.3-0.5-0.2-0.7
				c0.1-0.3,0.1-0.7,0.3-1c1.1-2.7,1.5-5.6,2.3-8.5c0.6-2,0.6-4,0.2-6.1c-0.2-1.2-0.1-1.3,1.1-1.1c0.4,0.1,0.6-0.2,0.9-0.4
				c0.2-0.3,0.5-0.6,0.9-0.5c0.4,0.2,0.4,0.6,0.4,1c0.1,0.8,0,1.6-0.3,2.3c-0.8,1.7-0.3,3.3,0.1,4.9c0.2,0.8,0.3,1.6,0,2.3
				c-0.6,1-0.4,2-0.3,3c0,0.6,0.2,0.8,0.8,0.4c1.2-1,2.9-1.4,3.9-2.7c0.1-0.1,0.2-0.2,0.4-0.3c2.3-0.2,3.3-2.2,4.9-3.4
				c1-0.8,2-1.5,3.1-2c0.4-0.2,0.8-0.3,1.3-0.2c0,0.5-0.3,0.5-0.6,0.7c-1,0.7-1.9,1.5-2.5,2.7c-0.4,0.9-1.4,1.4-2.2,1.8
				c-0.9,0.5-1.7,1.2-1.9,2.2c-0.5,2.1-2.1,3-4,3.7c-1.8,0.6-2.2,1.8-1.2,3.4c0.8,1.4,1.7,2.7,2.6,3.9c0.5,0.7,1.1,1.2,2,1.3
				c1,0.1,1.5,0.7,1.5,1.7c0,0.7,0.3,1.4,0.7,1.9c0.6,0.8,1,1.7,1.1,2.8c0.2,2.4,0.9,4.6,1.8,6.8C85.2,63.7,85.4,64.5,85.3,65.4z"/>
			<path class="st3" d="M51.3,48.6c-0.1-0.7,0.3-1.2,0.6-1.8c0.6-0.9,1.1-1.8,1.2-2.9c0.2-1.4,1-2.7,1.2-4.2
				c0.1-0.8,1.1-1.1,1.9-1.3c0.8-0.2,1.3-0.6,1.5-1.5c0.2-1.2,2.6-2.3,3.5-1.6c0.8,0.7,1.6,0.6,2.5,0.4c0.7-0.1,1.6-0.5,1.7,0.4
				c0.1,0.8-0.8,1.1-1.6,1.2c-0.9,0.1-1.9,0.1-2.8,0.3c-0.6,0.2-2,0.2-1.1,1.6c0.2,0.2-0.2,0.4-0.3,0.5c-0.7,0.8-1.6,1.4-2.4,2
				c-0.6,0.5-1.1,1-1.4,1.7c-0.2,0.6-0.2,1.2,0.4,1.5c0.8,0.6,0.7,1.2,0.3,1.9c-0.3,0.6-0.7,1.2-1,1.8c-0.3,0.6-0.3,1.2,0.2,1.7
				c0.6,0.5,1.1,0.3,1.7,0c1.7-0.9,3.3-1.2,5.1,0c0.8,0.5,1.6,0.5,2.4-0.1c0.2-0.2,0.5-0.5,0.8-0.2c0.2,0.2,0.2,0.6,0,0.9
				c-0.4,0.8-0.9,1.6-2,1.4c-1.1-0.1-2.1,0.1-2.9,0.8c-0.2,0.2-0.5,0.4-0.7,0.3c-1.7-0.5-2.1,0.9-2.7,1.9c-0.3,0.5-0.5,1.1-0.8,1.7
				c-0.1,0.2-0.3,0.4-0.5,0.4c-0.3,0-0.3-0.3-0.3-0.5c-0.1-1-0.3-2.1-1.2-2.8c-0.2-0.1-0.1-0.4-0.1-0.7c0.1-1.3-0.2-1.7-1.5-1.6
				c-1.2,0.1-1.3-0.4-1-1.3c0.2-0.5,0.4-1.1,0.6-1.6c0.1-0.3,0.4-0.7,0-0.9c-0.3-0.2-0.5,0.2-0.8,0.3C51.7,48.5,51.6,48.7,51.3,48.6
				z"/>
			<path class="st3" d="M45.8,54.9c0.1-1.2-0.2-2.2-0.4-3.2c-0.2-1.2-0.5-2.4-0.4-3.6c0.2-1.3,0.4-2.6-0.7-3.7
				c-0.5-0.4-0.2-1.1,0-1.6c0.3-0.6,0.6-1.3,0.7-2c0.1-0.4,0.2-0.9-0.2-1.1c-0.9-0.6-0.7-1.3-0.4-2.1c0-0.1,0-0.3,0.1-0.5
				c0.1-0.7,1.1-2.2,1.7-2.4c0.6-0.3,1.1-0.2,1,0.7c0,0,0,0.1,0,0.1c0.6,2.1,0.2,4.1-0.1,6.1c-0.1,0.9,0.2,1.7,1.1,2.3
				c0.7,0.4,0.8,1.1,0.3,1.7c-0.9,1.1-1.2,2.3-0.4,3.6c0.4,0.7,0.2,1.4-0.1,2.1c-0.7,1.6-1.1,3.3-0.8,5.1c0.1,0.4,0.1,1.3-0.5,1.3
				c-0.6,0-0.7-0.8-0.7-1.4C45.8,55.8,45.8,55.3,45.8,54.9z"/>
			<path class="st3" d="M45.4,24.9c-0.1,0.8-0.1,1.4,1,1.3c0.6-0.1,0.7,0.5,0.6,0.9c-0.3,0.9-0.4,1.9-0.5,2.8c0,0.5-0.2,1-0.8,1.2
				c-0.6,0.2-0.9-0.1-1.3-0.5c-0.1-0.2-0.3-0.3-0.5-0.4c-1.1-0.4-1-1.2-0.6-2.1c0.4-1,1-1.8,0.4-3c-0.3-0.6,0.3-1.2,1-1.2
				C45.6,23.8,45.3,24.5,45.4,24.9z"/>
			<path class="st3" d="M112.7,51.9c0.1-2.5,1.1-4,2.6-5.3c0.1-0.1,0.3-0.2,0.4-0.3c1.3-0.9,2-1.9,2.4-3.6c0.5-2,1.3-4,1.6-6.1
				c0.1-0.5,0.4-1.1,0.7-1.6c0.2-0.4,0.6-0.7,1-0.5c0.5,0.2,0.3,0.7,0.2,1c-0.2,0.9-0.5,1.7-0.7,2.6c-0.1,0.5-0.2,1,0,1.5
				c0.7,1,0.5,2,0.1,3c-0.9,2.4-0.7,4.9-0.7,7.4c0,1.4,1,2.6,1.2,4c0,0.3,0.1,0.6,0.2,0.9c0,0.5-0.1,0.9-0.6,1
				c-0.5,0.2-0.9-0.1-1.2-0.5c-0.4-0.7-0.5-1.5-0.6-2.2c-0.1-0.3-0.1-0.8-0.5-0.8c-0.4-0.1-0.5,0.4-0.7,0.7c-0.9,1.7-1.4,1.8-3.2,1
				c-0.1-0.1-0.3-0.2-0.4-0.2C113.2,53.6,112.5,52.8,112.7,51.9z M118.8,48.8c0-1.1-0.7-2-1.5-1.5c-1.3,0.7-2.5,1.5-2.7,3.2
				c-0.1,0.7,0.2,1.2,0.7,1.6c0.4,0.3,0.9,0.5,1.4,0.2C117.8,51.4,118.7,50.5,118.8,48.8z"/>
			<path class="st3" d="M94.8,55.4c0-1.2-0.4-2.3-0.8-3.3c-0.2-0.5,0.1-0.9,0.3-1.3c0.6-1,0.9-2.1,1.3-3.2c0.4-1.1,0.5-2.1,0.1-3.1
				c-0.3-0.9,0.2-1.6,0.5-2.4c0.3-0.8,0.5-1.6,1.6-1.7c0.6,0,0.7-0.7,0.8-1.1c0.2-0.8,0.3-1.6,0.7-2.3c0.2-0.3,0.4-0.6,0.7-0.5
				c0.3,0.1,0.4,0.5,0.4,0.7c0,1.2,0.3,2.4,0.4,3.7c0.2,1.9,0.4,3.8,1.2,5.4c1.1,2.5,0.5,5.1,1,7.6c0.1,0.4,0.2,1-0.3,1.1
				c-0.5,0.2-0.6-0.5-0.8-0.8c-0.6-1.2-1-2.5-1.4-3.8c-0.1-0.2-0.1-0.5-0.2-0.7c-0.4-1-1-2-2-1.9c-0.9,0.1-1.2,1.2-1.4,2.2
				c-0.1,0.5-0.3,1-0.6,1.5c-0.4,0.5-0.5,1-0.4,1.7C96.2,54,95.2,54.6,94.8,55.4z M100,43c0-0.3,0-0.6,0-0.9c-0.1-0.5-0.3-1-0.9-1.1
				c-0.6-0.1-0.7,0.5-0.9,0.9c-0.3,0.7-0.6,1.4-0.8,2.1c-0.2,0.5-0.4,1-0.2,1.6c0.3,0.6,0.8,0.2,1.2,0.2c0.1,0,0.3,0.1,0.4,0.1
				c1,0.4,1.5,0,1.3-1.1C100.1,44.2,99.9,43.6,100,43z"/>
			<path class="st3" d="M112.4,39.2c0.6,0.6,0.5,1.2,0.4,1.8c-0.5,2.8-1,5.5-1.4,8.3c-0.2,1.1,0.1,2.2-0.2,3.3
				c-0.1,0.2,0,0.5-0.3,0.6c-0.3,0.1-0.4-0.3-0.5-0.5c-0.8-2.3-2.3-4.2-3.8-6c-0.1-0.2-0.3-0.4-0.5-0.3c-0.2,0.1-0.3,0.3-0.3,0.6
				c0,0.6-0.1,1.2,0.1,1.7c0.5,1.1,0,2.2,0.1,3.3c0,0.4-0.2,0.8-0.7,0.8c-0.4,0-0.6-0.4-0.6-0.8c0-0.9-0.2-1.8-0.7-2.6
				c-0.4-0.6-0.3-1.4,0.2-2.1c0.5-0.7,0.7-1.6,0.6-2.4c-0.3-1.4,0.1-2.7,0.1-4c0-0.2-0.1-0.5,0.2-0.6c0.3-0.1,0.5,0.1,0.7,0.4
				c0.4,0.7,0.4,1.5,0.7,2.3c0.2,0.6,0.4,1.1,1.2,1c0.6-0.1,0.7,0.4,0.9,0.8c0.3,0.7,0.4,1.9,1.1,1.8c0.7,0,0.2-1.2,0.4-1.8
				C110.7,42.8,111.3,41,112.4,39.2z"/>
			<path class="st1" d="M186.8,39.1c0.1-0.1,0.1-0.6,0.4-0.7c1-0.4,1.3-1.4,1.8-2.2c0.6-0.8,2.8-1.2,3.6-0.7c0.6,0.4,0.5,0.9,0,1.2
				c-1,0.6-1.2,1.4-0.9,2.5c0.2,0.9-0.1,1.7-0.7,2.3c-1.1,1.3-1.7,1.3-2.7-0.1c-0.3-0.4-0.6-0.7-0.9-1
				C187,40.2,186.7,39.8,186.8,39.1z M192.3,36.3c-1.8-0.6-2.6-0.3-3.2,1.1c-0.3,0.5-0.5,1-1.1,1.3c-0.7,0.3-0.6,0.8-0.2,1.3
				c0.5,0.5,1,1,1.3,1.6c0.2,0.4,0.5,0.5,0.8,0.2c0.7-0.6,1.3-1.2,1.2-2.2C190.8,38.3,190.6,37,192.3,36.3z"/>
			<path class="st1" d="M170,45.3c-0.1-1.1,0.2-2,1-2.7c0.6-0.5,0.7-1.2,0.6-1.9c-0.1-1.1,0.5-1.8,1.3-2.4c0.4-0.2,0.8-0.4,1.2-0.1
				c0.4,0.3,0.3,0.7,0.2,1.2c-0.7,2.1-0.7,2.1,1,3.3c0.8,0.6,0.7,1.4,0.4,2.1c-0.6,1.2-0.5,2.3,0,3.4c0.3,0.6,0.5,1.3,0,1.8
				c-0.6,0.6-1.5,0.3-2.3,0.4c-0.3,0-0.4-0.4-0.5-0.7c-0.4-0.9-0.7-1.6-1.8-1.9C169.9,47.5,170.1,46.2,170,45.3z M173.6,38.7
				c-0.8,0.4-1.4,0.9-1.3,1.9c0.1,1-0.2,1.8-0.9,2.5c-1.2,1-0.7,2.4-0.5,3.7c0,0.2,0.2,0.5,0.5,0.5c1.2,0.1,1.7,1,2,1.9
				c0.4,1,1.2,0.4,1.7,0.3c0.6-0.1,0.2-0.7,0.1-1c-0.6-1.3-0.8-2.5-0.1-3.9c0.4-0.7,0.2-1.2-0.6-1.7c-1.4-0.9-1.6-1.8-0.9-3.5
				C173.7,39.3,173.8,39.1,173.6,38.7z"/>
			<path class="st2" d="M31.4,25.9c-0.3,0.9,0.5,1.3,0.9,1.8c0.6,0.7,1.7,1.3,0.5,2.4c-0.2,0.2-0.1,0.5,0,0.7
				c1.4,1.8,0.3,3.3-0.8,4.6c-0.5,0.6-0.8,1.2-0.9,1.9c-0.3,2.3-0.5,2.5-2.8,3.1c-1,0.3-1.8,0.8-2.4,1.5c-0.6,0.7-1.3,1-2,0.2
				c-0.6-0.6-1.2-0.5-1.7,0c-0.3,0.3-0.7,0.5-1.1,0.2c-0.3-0.3-0.4-0.7-0.2-1.2c0.1-0.4,0.2-0.7,0.4-1.1c0.2-0.4,0.2-0.7-0.2-1
				c-0.7-0.4-0.7-1-0.6-1.7c0.1-0.9,0-1.6-0.8-2.1c-0.6-0.3-0.8-1-0.5-1.6c0.3-0.8,0.2-1.6-0.4-2.1c-1.1-0.9-0.9-2.1-0.8-3.3
				c0-0.5,0-0.9-0.3-1.3c-0.5-0.5-0.5-1.2-0.4-1.8c0.1-1,0.6-1.5,1.7-1.2c1.1,0.3,2,0,2.7-0.8c0.9-1,2-1.3,3.4-1
				c0.3,0.1,0.6,0.1,0.8,0c1.2-0.3,1.8,0.1,2.2,1.2c0.2,0.7,0.8,1,1.6,0.7C30.6,23.7,31.5,24.4,31.4,25.9z M21.5,41.8
				c1-0.9,2-1,3.1,0c0.4,0.4,0.7-0.1,0.9-0.3c0.8-0.9,1.8-1.5,2.9-1.7c1.6-0.2,1.8-0.7,2-2.3c0.1-1,0.4-1.8,1.1-2.6
				c1.1-1.1,1.9-2.4,0.6-4c-0.2-0.3-0.2-0.7,0.1-1c0.6-0.6,0.4-1-0.1-1.5c-0.8-0.8-1.7-1.5-1.4-2.9c0.1-0.7-0.3-1.1-1.1-0.8
				c-1.4,0.4-1.9,0.1-2.6-1.2c-0.1-0.3-0.2-0.7-0.5-0.7c-1.6,0.2-3.5-0.7-4.9,1c-0.6,0.7-1.5,1.1-2.5,0.9c-0.5-0.1-1.1-0.4-1.4,0.2
				c-0.3,0.6-0.3,1.3,0.2,1.8c0.5,0.5,0.5,1.1,0.4,1.7c-0.1,1-0.2,2,0.7,2.9c0.7,0.6,0.9,1.5,0.5,2.5c-0.2,0.5-0.1,0.9,0.4,1.2
				c1,0.6,1.1,1.5,1,2.5c-0.1,0.3-0.1,0.8,0.2,1c1.2,0.7,0.9,1.6,0.3,2.6C21.4,41.2,21.3,41.5,21.5,41.8z"/>
			<path class="st1" d="M118.8,48.8c-0.1,1.7-1,2.6-2,3.4c-0.4,0.4-1,0.2-1.4-0.2c-0.5-0.4-0.8-0.9-0.7-1.6c0.2-1.6,1.4-2.5,2.7-3.2
				C118.1,46.9,118.8,47.7,118.8,48.8z M118.1,49c0-0.4,0.1-0.9-0.4-1.1c-0.4-0.2-0.5,0.3-0.8,0.5c-0.2,0.1-0.5,0.3-0.7,0.4
				c-0.9,0.6-0.9,1.5-0.8,2.3c0.1,0.5,0.6,0.9,1.1,0.5C117.3,50.9,118.1,50.2,118.1,49z"/>
			<path class="st1" d="M100,43c-0.1,0.6,0.1,1.2,0.2,1.8c0.2,1.1-0.3,1.5-1.3,1.1c-0.1-0.1-0.3-0.1-0.4-0.1c-0.4,0-0.9,0.4-1.2-0.2
				c-0.3-0.5,0-1.1,0.2-1.6c0.3-0.7,0.5-1.4,0.8-2.1c0.2-0.4,0.2-1,0.9-0.9c0.6,0.1,0.8,0.6,0.9,1.1C100,42.4,100,42.7,100,43z
				 M99.3,41.9c-0.1,0-0.2,0-0.3-0.1c-0.3,0.7-0.6,1.4-0.9,2.1c-0.3,0.7-0.6,1.3,0.6,1.3c0.3,0,0.4,0.3,0.8,0.2
				C99.3,44.2,99.2,43.1,99.3,41.9z"/>
			<path class="st0" d="M192.3,36.3c-1.6,0.7-1.5,2-1.3,3.3c0.2,1-0.5,1.6-1.2,2.2c-0.3,0.3-0.6,0.2-0.8-0.2
				c-0.3-0.7-0.8-1.1-1.3-1.6c-0.4-0.5-0.5-1,0.2-1.3c0.6-0.3,0.8-0.7,1.1-1.3C189.7,36.1,190.5,35.8,192.3,36.3z"/>
			<path class="st0" d="M173.6,38.7c0.2,0.3,0.1,0.5,0,0.7c-0.7,1.6-0.5,2.5,0.9,3.5c0.7,0.5,0.9,1,0.6,1.7
				c-0.7,1.3-0.5,2.6,0.1,3.9c0.2,0.4,0.5,1-0.1,1c-0.5,0.1-1.3,0.7-1.7-0.3c-0.4-0.9-0.8-1.9-2-1.9c-0.3,0-0.4-0.3-0.5-0.5
				c-0.2-1.3-0.6-2.6,0.5-3.7c0.8-0.7,1-1.5,0.9-2.5C172.2,39.6,172.8,39.1,173.6,38.7z M173.1,46.5c0.2-0.6,0.4-1.3,0.6-1.9
				c0.2-0.5-0.1-0.7-0.4-1c-0.4-0.3-0.6-0.1-0.9,0.1C171.3,44.8,171.6,45.9,173.1,46.5z"/>
			<path class="st0" d="M21.5,41.8c-0.2-0.3-0.1-0.6,0-0.9c0.5-0.9,0.9-1.8-0.3-2.6c-0.3-0.2-0.2-0.6-0.2-1c0.1-1,0-1.9-1-2.5
				c-0.4-0.3-0.6-0.7-0.4-1.2c0.4-0.9,0.1-1.8-0.5-2.5c-0.9-0.8-0.8-1.8-0.7-2.9c0-0.6,0.1-1.2-0.4-1.7c-0.5-0.5-0.5-1.3-0.2-1.8
				c0.3-0.6,0.9-0.3,1.4-0.2c1,0.1,1.9-0.2,2.5-0.9c1.4-1.7,3.2-0.8,4.9-1c0.4,0,0.4,0.4,0.5,0.7c0.7,1.3,1.2,1.6,2.6,1.2
				c0.8-0.2,1.2,0.2,1.1,0.8c-0.3,1.4,0.6,2.2,1.4,2.9c0.6,0.5,0.8,0.9,0.1,1.5c-0.3,0.3-0.3,0.7-0.1,1c1.3,1.6,0.5,2.9-0.6,4
				c-0.8,0.8-1,1.6-1.1,2.6c-0.2,1.6-0.4,2.1-2,2.3c-1.2,0.2-2.1,0.8-2.9,1.7c-0.2,0.3-0.5,0.8-0.9,0.3C23.5,40.8,22.5,41,21.5,41.8
				z M21.4,33c-0.1,0.5,0.2,1,0.6,1.5c0.3,0.3,0.5,0.7,0.5,1.1c0.1,1.2,0.5,2.2,1,3.2c0.5,1,0.9,1.2,1.8,0.6
				c0.8-0.6,1.7-1.1,2.7-1.2c0.6-0.1,0.8-0.5,0.8-1c0-1.4,0.5-2.6,1.5-3.5c0.7-0.6,0.9-1.3,0.3-2.1c-0.2-0.2-0.3-0.7-0.2-1
				c0.4-1.1-0.2-1.8-0.9-2.5c-0.2-0.2-0.4-0.5-0.4-0.8c-0.1-0.6-0.5-0.8-1-0.8c-0.8-0.1-1.4-0.5-1.9-1.2c-1-1.2-2.3-1.3-3.5-0.3
				c-0.4,0.3-0.7,0.7-1.1,0.8C20,26,19.8,26.8,20,28.2c0.1,0.8,0.1,1.6,0.7,2.2C21.1,31.1,21.5,31.8,21.4,33z"/>
			<path class="st0" d="M118.1,49c0,1.2-0.8,1.9-1.6,2.6c-0.5,0.5-1.1,0-1.1-0.5c-0.1-0.9-0.1-1.8,0.8-2.3c0.2-0.1,0.5-0.3,0.7-0.4
				c0.3-0.2,0.5-0.7,0.8-0.5C118.2,48.1,118.1,48.6,118.1,49z"/>
			<path class="st0" d="M99.3,41.9c-0.1,1.2,0,2.3,0.3,3.5c-0.4,0.1-0.6-0.2-0.8-0.2c-1.2,0.1-0.9-0.6-0.6-1.3
				c0.3-0.7,0.6-1.4,0.9-2.1C99.1,41.9,99.2,41.9,99.3,41.9z"/>
		</g>
	</g>
</g>
</svg>
